<svg xmlns="http://www.w3.org/2000/svg" xmlns:xlink="http://www.w3.org/1999/xlink" width="808.815" height="364.074" viewBox="0 0 808.815 364.074">
  <defs>
    <linearGradient id="linear-gradient" x1="0.902" y1="0.943" x2="-0.065" y2="0.976" gradientUnits="objectBoundingBox">
      <stop offset="0" stop-color="#cde6f4"/>
      <stop offset="1" stop-color="#fff"/>
    </linearGradient>
    <linearGradient id="linear-gradient-2" x1="0" y1="1" x2="0.634" y2="1" xlink:href="#linear-gradient"/>
    <linearGradient id="linear-gradient-3" x1="0.27" y1="0.683" x2="0.5" y2="1" xlink:href="#linear-gradient"/>
    <linearGradient id="linear-gradient-4" x1="1" y1="1" x2="-0.302" y2="1" xlink:href="#linear-gradient"/>
    <linearGradient id="linear-gradient-5" x1="1.08" y1="1" x2="-0.174" y2="1.146" xlink:href="#linear-gradient"/>
    <linearGradient id="linear-gradient-6" x1="0.093" y1="0.5" x2="1.279" y2="0.5" gradientUnits="objectBoundingBox">
      <stop offset="0" stop-color="#fce7c3"/>
      <stop offset="1" stop-color="#e6dcdc"/>
    </linearGradient>
    <linearGradient id="linear-gradient-7" x1="1.089" y1="1" x2="0.063" y2="1" gradientUnits="objectBoundingBox">
      <stop offset="0" stop-color="#e2c799"/>
      <stop offset="0.82" stop-color="#f1e0c1"/>
      <stop offset="1" stop-color="#faeed8"/>
    </linearGradient>
    <linearGradient id="linear-gradient-8" x1="0.137" y1="1" x2="0.748" y2="1" gradientUnits="objectBoundingBox">
      <stop offset="0" stop-color="#ebe4dc"/>
      <stop offset="1" stop-color="#d9b189"/>
    </linearGradient>
  </defs>
  <g id="Group_156" data-name="Group 156" transform="translate(-392.873 -142)">
    <g id="Group_155" data-name="Group 155" transform="translate(392.873 182.78)">
      <path id="Path_179" data-name="Path 179" d="M16465.543-2083.6s-41.148-71.605,60.6-129.454,70.354-123.7,169.912-144.317,183.7,74.792,221.6,134.874,148.059-4.565,214.68,35.481,51.2,103.416,51.2,103.416Z" transform="translate(-16432.729 2378.268)" fill="url(#linear-gradient)"/>
      <g id="Group_146" data-name="Group 146" transform="translate(0 0)">
        <path id="Path_185" data-name="Path 185" d="M463.19,221.464c0-2.176-4.617-3.879-10.516-3.879s-2.052,0-3.078.189v-1.23c0-4.542-10-8.232-22.315-8.232s-2.821,0-4.1.095c-3.334-2.082-9.49-3.406-16.672-3.406-10.516,0-19.237,3.122-19.494,7.1h-.256c-10,0-17.955,2.933-17.955,6.623s7.951,6.623,17.955,6.623h65.663c5.643,0,10.26-1.8,10.26-3.879Z" transform="translate(-278.713 -73.722)" fill="url(#linear-gradient-2)"/>
        <ellipse id="Ellipse_10" data-name="Ellipse 10" cx="41.399" cy="41.399" rx="41.399" ry="41.399" transform="translate(576.084)" fill="#fdf58a"/>
        <path id="Path_15" data-name="Path 15" d="M2.425,8.707A30.732,30.732,0,0,1,4.266,5.764c8.2-.407,24.727.59,30.966,1.315C34.443,5.925,31.327.862,31.327.862s1.135-1.94,3.905,0,11.063,7.01,11.063,7.01,17.1,3.053,20.754,5.063,1.512,3.515-.7,4.625-1.372,1.791-7.237,2.249-16.806-2.67-23.883-2.971c-4.2,2.363-17.5,8.44-18.486,8.777s-4.594.623-6.013,0c3.207-2.4,11.892-8.673,15.464-11.309-4.209-.723-15.25-3.044-15.25-3.044s-5.653,7.407-6.681,7.821a8.937,8.937,0,0,1-4.266,0c1.593-2.509,5.825-9.459,5.825-9.459Z" transform="translate(63.991 82.798) rotate(-158)" fill="#c4dfef"/>
        <path id="Path_18" data-name="Path 18" d="M2729.7,3312.794s-213.562,7.665-374.866-79.329c101.689,66.585,312.886,83.871,408.8,82.544C2763.511,3314.283,2729.7,3312.794,2729.7,3312.794Z" transform="translate(-2304.821 -3164.457)" fill="url(#linear-gradient-3)"/>
      </g>
    </g>
    <g id="Group_154" data-name="Group 154" transform="translate(570.377 142)">
      <ellipse id="Ellipse_11" data-name="Ellipse 11" cx="219.158" cy="4.844" rx="219.158" ry="4.844" transform="translate(122.946 354.385)" fill="#eae3d7"/>
      <g id="_4012174" data-name="4012174" transform="translate(0 0)">
        <g id="Background_Complete" data-name="Background Complete">
          <g id="Group_117" data-name="Group 117" transform="translate(0 326.775)">
            <rect id="Rectangle_27" data-name="Rectangle 27" width="586.654" height="0.189" fill="#ebebeb"/>
            <rect id="Rectangle_28" data-name="Rectangle 28" width="31.319" height="0.189" transform="translate(507.93 15.234)" fill="#ebebeb"/>
            <rect id="Rectangle_29" data-name="Rectangle 29" width="8.232" height="0.189" transform="translate(418.703 17.789)" fill="#ebebeb"/>
            <rect id="Rectangle_30" data-name="Rectangle 30" width="18.167" height="0.189" transform="translate(488.817 6.434)" fill="#ebebeb"/>
            <rect id="Rectangle_31" data-name="Rectangle 31" width="40.876" height="0.189" transform="translate(163.227 8.043)" fill="#ebebeb"/>
            <rect id="Rectangle_32" data-name="Rectangle 32" width="5.961" height="0.189" transform="translate(212.524 8.043)" fill="#ebebeb"/>
            <rect id="Rectangle_33" data-name="Rectangle 33" width="88.659" height="0.189" transform="translate(237.977 12.017)" fill="#ebebeb"/>
          </g>
          <g id="Group_121" data-name="Group 121" transform="translate(54.757)">
            <g id="Group_145" data-name="Group 145" transform="translate(0 98.363)">
              <path id="Path_63" data-name="Path 63" d="M344.867,175.756c0-3.5-5.1-6.434-11.566-6.434s-2.211.095-3.232.284c0-.662.34-1.325.34-1.987,0-7.475-10.886-13.531-24.323-13.531s-3.062,0-4.422.189c-3.742-3.406-10.546-5.677-18.2-5.677-11.736,0-21.092,5.2-21.262,11.733h-.34c-10.886,0-19.561,4.92-19.561,10.881s8.845,10.881,19.561,10.881h72.12c6.123-.095,11.226-2.933,11.226-6.434Z" transform="translate(-128.455 -148.6)" fill="#fff"/>
              <path id="Path_64" data-name="Path 64" d="M224.608,188.556c0-3.5-8.4-6.434-19.048-6.434s-3.641.095-5.322.284c0-.662.56-1.325.56-1.987,0-7.475-17.927-13.531-40.056-13.531s-5.042,0-7.283.189c-6.162-3.406-17.367-5.677-29.972-5.677-19.328,0-34.734,5.2-35.014,11.733h-.56c-17.927,0-32.213,4.92-32.213,10.881S70.266,194.9,87.913,194.9H206.68c10.084-.095,18.487-2.933,18.487-6.434Z" transform="translate(-55.7 -161.4)" fill="#fff"/>
            </g>
            <path id="Path_180" data-name="Path 180" d="M368.8,221.464c0-2.176,4.617-3.879,10.516-3.879s2.052,0,3.078.189v-1.23c0-4.542,10-8.232,22.315-8.232s2.821,0,4.1.095c3.334-2.082,9.49-3.406,16.672-3.406,10.516,0,19.237,3.122,19.494,7.1h.256c10,0,17.954,2.933,17.954,6.623s-7.951,6.623-17.954,6.623H379.573c-5.643,0-10.26-1.8-10.26-3.879Z" transform="translate(113.364 -40.545)" fill="url(#linear-gradient-4)"/>
            <path id="Path_66" data-name="Path 66" d="M241.876,89.964c0-2.176-5.883-3.879-13.4-3.879s-2.615,0-3.922.189v-1.23c0-4.542-12.747-8.232-28.435-8.232s-3.6,0-5.229.095C186.64,74.825,178.8,73.5,169.645,73.5c-13.4,0-21.864,3.162-24.84,7.1-10.92-.741-23.205,2.933-23.205,6.623s10.132,6.623,22.879,6.623h83.67c7.19,0,13.073-1.8,13.073-3.879Z" transform="translate(52.537 -73.5)" fill="url(#linear-gradient-5)"/>
            <path id="Path_67" data-name="Path 67" d="M89.9,243.662l25.548,116.383,4.731-2.176L93.212,243Z" transform="translate(53.958 -48.126)" fill="#ebebeb"/>
            <g id="Group_119" data-name="Group 119" transform="translate(403.876 34.874)">
              <path id="Path_68" data-name="Path 68" d="M399.544,353.206s-15.8-109.381,19.776-222.453l-5.583-4.353s-41.822,85.537-35.672,229.833l21.479-3.028Z" transform="translate(-365.386 -76.728)" fill="#dce8d9"/>
              <g id="Group_118" data-name="Group 118">
                <path id="Path_69" data-name="Path 69" d="M431.247,99.452c13.058-8.61,32.455,5.11,35.1,26.4a38.16,38.16,0,0,0-5.961-2.839c-1.041-5.393-1.987-10.124-1.987-10.124l.662,9.651c-1.135-.378-2.366-.852-3.785-1.23l-.946-5.2-.473,4.826c-1.7-.378-3.6-.757-5.583-1.041l-2.46-15.139-1.23,14.855a39.96,39.96,0,0,0-5.772.284L437.3,109.576v10.5c-1.609.284-3.217.662-4.92,1.135l-1.8-15.329v15.9A41.6,41.6,0,0,0,418,129.163V127.27c-.095,0,1.419-20.154,13.341-28.008Z" transform="translate(-367.567 -75.138)" fill="#dce8d9"/>
                <path id="Path_70" data-name="Path 70" d="M410.582,91.991c-10.408-11.733-32.644-3.6-40.781,16.275a43.358,43.358,0,0,1,6.529-1.23c2.366-4.92,4.542-9.273,4.542-9.273l-3.217,9.084c1.23-.095,2.555-.189,3.974-.189l2.271-4.731-.852,4.731a40.511,40.511,0,0,1,5.677.473l6.34-13.909-2.649,14.666a41.256,41.256,0,0,1,5.488,1.8l4.163-9.557-2.744,10.124a33.783,33.783,0,0,1,4.447,2.366l5.772-14.288s-2.271,8.327-4.163,15.423a38.733,38.733,0,0,1,10.219,10.5l.662-1.8s3.785-19.87-5.677-30.562Z" transform="translate(-364.974 -74.585)" fill="#dce8d9"/>
                <path id="Path_71" data-name="Path 71" d="M401.885,121.323C412.294,111.2,420.147,120,420.147,120a22.748,22.748,0,0,0-10.408,6.718l-1.419-1.8.189,3.122c-.757.852-1.419,1.7-2.082,2.555l-2.366-5.393,1.041,7.38c-.946,1.419-1.892,2.839-2.649,4.258l-1.041-5.393v7.1c-.757,1.609-1.609,3.217-2.271,4.636l-1.135-9.841-.189,12.774c-1.7,3.974-2.555,6.718-2.555,6.718s-3.785-21.384,6.623-31.509Z" transform="translate(-366.308 -76.193)" fill="#dce8d9"/>
                <path id="Path_72" data-name="Path 72" d="M431.376,145.8l-2.176,1.23c-.284-1.609-.662-3.406-1.135-5.109l1.419-2.649-1.8,1.135c-.189-.568-.284-1.135-.473-1.7l1.892-5.2-2.839,2.082c-1.514-4.731-3.406-8.894-5.866-10.881,0,0,23.844,7.664,10.408,33.4,0,0-.473-4.069-1.419-9.462l1.892-2.744Z" transform="translate(-367.697 -76.636)" fill="#dce8d9"/>
                <path id="Path_73" data-name="Path 73" d="M404.914,123.995l-3.785-7.191,1.609,7.475a4.75,4.75,0,0,0-1.135.189l-4.92-6.15,1.23,7.1a46.5,46.5,0,0,0-5.015,1.8,44.973,44.973,0,0,0-5.2,2.649l-2.366-6.245,1.135,7a51.034,51.034,0,0,0-4.731,3.122l-1.23-5.583v6.34c-1.8,1.325-3.5,2.744-5.2,4.069l.189-10.03L374.068,139.7c-1.7,1.419-3.122,2.744-4.447,3.974l-.189-7-1.8,8.894c-1.8,1.8-2.933,3.028-2.933,3.028.946-24.412,10.408-34.063,26.021-36.713s26.967,13.625,26.967,13.625S412.862,123.238,404.914,123.995Z" transform="translate(-364.7 -75.931)" fill="#dce8d9"/>
                <path id="Path_74" data-name="Path 74" d="M453.533,154.2l-1.419,7.286c-.662-1.8-1.609-4.163-2.839-6.718l1.325-10.692-2.365,8.421a88.1,88.1,0,0,0-6.34-10.976l2.271-7.38-3.6,5.488c-.757-.946-1.514-1.892-2.271-2.744l1.23-4.636-1.987,3.879c-.568-.568-1.041-1.135-1.609-1.7l1.514-6.245-2.46,5.393a25.741,25.741,0,0,0-5.015-3.6l2.46-7.57s-1.8,3.122-3.879,6.907a17.211,17.211,0,0,0-7.854-1.609s4.731-7.57,13.436-10.124c8.705-2.649,27.44,13.152,19.3,47.878,0,0-.284-.757-.757-2.176l.757-8.989Z" transform="translate(-367.713 -76.238)" fill="#dce8d9"/>
                <path id="Path_75" data-name="Path 75" d="M439.219,84.308l1.514,4.447a10.537,10.537,0,0,0-1.609.189l-1.8-5.772,1.23,5.866a12.118,12.118,0,0,0-3.217,1.514l-2.46-7.759,1.419,8.421c-.379.284-.757.568-1.23.946l-2.744-7.286,2.082,7.948a29.073,29.073,0,0,0-5.2,6.907l-.757-10.692-1.23,14.572a85.352,85.352,0,0,0-4.92,14.1s-1.514-38.794,7.854-43.147S443,88.85,443,88.85a3.885,3.885,0,0,0-1.325-.189l-2.46-4.447Z" transform="translate(-367.686 -73.904)" fill="#dce8d9"/>
                <path id="Path_76" data-name="Path 76" d="M425.441,129.867l-.852,7.38-2.839-7.1-3.785,5.583-1.514-5.2-4.353,3.69s.568-9.367,3.312-13.625c2.839-4.258,11.165-1.23,9.935,9.367Z" transform="translate(-367.25 -76.315)" fill="#dce8d9"/>
              </g>
            </g>
            <g id="Group_120" data-name="Group 120" transform="translate(273.962 155.417)">
              <path id="Path_77" data-name="Path 77" d="M301.112,252.584V201.3S290.7,212.371,283.8,210.857s-15.9,3.69-15.9,3.69,8.989-1.325,12.4,2.366c3.312,3.69,18.262,4.069,18.262,4.069v33.5l2.555-1.892Z" transform="translate(-229.579 -201.3)" fill="#fde39a"/>
              <path id="Path_78" data-name="Path 78" d="M345.949,238.9h-2.366v3.217h-7.759V238.9H328.16v3.217h-7.854V238.9h-7.664v3.217h-7.759V238.9h-7.664v3.217h-7.853V238.9H281.8v3.217h-7.854V238.9h-7.664v3.217h-7.759V238.9H255.87l-7.57,60.746,105.5-.473Z" transform="translate(-228.524 -203.323)" fill="url(#linear-gradient-6)"/>
              <path id="Path_79" data-name="Path 79" d="M361.572,285.5h-3.217v4.447H347.663V285.5h-10.5v4.447H326.373V285.5h-10.5v4.447H305.178V285.5h-10.5v4.447H283.889V285.5h-10.5v4.447H262.694V285.5h-10.5v4.447H241.5V285.5h-3.69L227.4,368.955l145.053-.662Z" transform="translate(-227.4 -205.83)" fill="#d6d3b1"/>
            </g>
            <path id="Path_80" data-name="Path 80" d="M405.713,361.615c-2.271-2.555-4.353-5.109-6.718-7.57-.189-.189-.284-.378-.378-.378-.757-.473-1.609-.946-2.366-1.325a7.391,7.391,0,0,1-1.135-.473l-2.839-1.135c-5.866-2.366-11.165-5.109-15.612-9.746-2.46-2.555-4.353-5.583-6.907-8.043a2.7,2.7,0,0,1-.757-.379,6,6,0,0,1-1.892-.284H364.08c-1.419,0-2.933.189-4.353.284-5.677,8.232-12.774,19.492-15.9,21.006-4.826,2.271-49.77,14.193-53.082,13.436s-20.627.662-24.98.568c-4.353-.189-12.206-2.082-23.655-7.38s-17.694-5.3-31.414-9.651-22.993-6.056-31.036.662-30.184-7.475-37-9.557c-6.907-1.987-20.06-13.72-29.049-8.232S97.156,341.46,85.9,351.206s-33.5,28.481-33.5,28.481H431.829l-4.353-7.664a31.209,31.209,0,0,1-21.763-10.787Z" transform="translate(55.975 -52.912)" fill="url(#linear-gradient-7)"/>
            <path id="Path_81" data-name="Path 81" d="M43.195,262.889s11.071-19.87,40.971-37c0,0,24.317-2.082,51.852,9.935,0,0,5.583,9.273-.757,12.868-6.34,3.69-11.638-3.69-11.638-3.69s-1.135,11.165-9.462,11.544c-8.232.284-10.692-7.854-10.692-7.854s-.852,10.219-10.692,12.868c-8.61,2.271-13.909-5.015-13.909-5.015s-1.7,8.421-9.367,10.881c-6.15,1.987-10.408-3.312-10.408-3.312s-1.8,9.178-8.327,9.178c-5.583,0-7.664-10.314-7.664-10.314Z" transform="translate(56.476 -47.199)" fill="#f5eacc"/>
          </g>
        </g>
        <g id="Sand" transform="translate(432.522 299.237)">
          <g id="Group_127" data-name="Group 127" transform="translate(0 0)">
            <g id="Group_122" data-name="Group 122" transform="translate(72.765 0.459)">
              <path id="Path_83" data-name="Path 83" d="M384,365.985s4.163-6.056,7.853-7.664c3.785-1.7,4.353-8.043,6.434-8.421s4.258,5.583,7.853,7.286,8.894,8.8,8.894,8.8H384Z" transform="translate(-378.417 -349.882)" fill="#fff" opacity="0.8" style="isolation: isolate"/>
              <path id="Path_84" data-name="Path 84" d="M413.685,410.331h-29.9L380,366.9h37.47Z" transform="translate(-378.202 -350.797)" fill="#cea5a1"/>
              <rect id="Rectangle_34" data-name="Rectangle 34" width="41.16" height="4.542" transform="translate(0 13.832)" fill="#407bff"/>
              <rect id="Rectangle_35" data-name="Rectangle 35" width="41.16" height="4.542" transform="translate(0 13.832)" fill="#cc6d64" style="isolation: isolate"/>
              <path id="Path_85" data-name="Path 85" d="M397.891,367.806c2.744,4.258,14.382,21.952,21.668,23.182l.852-2.176s-6.434.757-20.817-22.141a.957.957,0,0,0-1.325-.378h0a.988.988,0,0,0-.379,1.419Z" transform="translate(-379.156 -350.757)" fill="#263238"/>
            </g>
            <g id="Group_123" data-name="Group 123" transform="translate(45.607)">
              <path id="Path_86" data-name="Path 86" d="M352.793,353.395h0A2.451,2.451,0,0,1,355.82,355l5.109,17.883,6.623-2.649s3.974,14.95-3.6,17.221c-7.38,2.271-13.058-11.449-13.058-11.449l6.718-1.892-6.434-17.694A2.357,2.357,0,0,1,352.7,353.3Z" transform="translate(-350.9 -353.297)" fill="#8e9181"/>
              <path id="Path_87" data-name="Path 87" d="M364.058,388.521C356.677,390.792,351,377.072,351,377.072l6.718-1.892s1.135,1.987,2.46,1.514.757-2.744.757-2.744l6.623-2.649s3.974,14.95-3.6,17.221Z" transform="translate(-350.905 -354.265)" fill="#f7d100" opacity="0.998" style="isolation: isolate"/>
            </g>
            <g id="Group_124" data-name="Group 124" transform="translate(0 25.792)">
              <path id="Path_89" data-name="Path 89" d="M418.137,414.756c-3.69-1.8-7.475-3.6-8.705-3.69-2.649-.189-4.163-1.325-5.961-3.6-1.892-2.271-2.649-4.826-5.961-8.421-3.406-3.6.378-5.015-6.718-5.961s-4.353-.378-8.705-3.5-3.5-3.122-8.61-5.393-2.082-3.122-8.137-3.6c-4.163-.378-10.692,1.8-14.1,4.258-1.514,1.041-2.271,2.839-3.785,3.785-1.7,1.041-4.258-.946-3.974,2.649,0,.946.378,1.892.095,2.744-.473,1.987-8.8,1.987-10.976,2.649-.473.189-1.041.284-1.23.757-.473.852.284,2.366-.662,2.744a3.172,3.172,0,0,1-.946,0c-1.135.189-.852,2.271-1.892,2.744s-2.271-.473-3.406,0c-.946.379-1.23,1.514-1.987,2.082-1.325.852-2.839,1.419-4.163,2.366-2.366,1.514-4.353,3.406-6.907,4.826l-6.718,1.8-1.987.662H418.232Z" transform="translate(-302.7 -380.555)" fill="url(#linear-gradient-8)" style="isolation: isolate"/>
            </g>
            <g id="Group_126" data-name="Group 126" transform="translate(1.514 25.456)">
              <path id="Path_90" data-name="Path 90" d="M338.842,397.521v.189h0a17.575,17.575,0,0,1-2.649,9.084,2.873,2.873,0,0,1-.473.662,16.633,16.633,0,0,1-3.6,3.69,5.748,5.748,0,0,1-.946.662h0s-.189.095-.189.189c-.095,0-.189.095-.284.189a2.068,2.068,0,0,0-.473.284c-.284.189-.568.284-.852.473h0a17.245,17.245,0,0,1-7.664,1.8,17.427,17.427,0,0,1-12.49-5.3,21.235,21.235,0,0,1-2.933-4.069,16.889,16.889,0,0,1-1.892-7.853h0v-1.514a17.558,17.558,0,0,1,1.8-6.34l.852-1.419a21.292,21.292,0,0,1,3.6-4.069,13.538,13.538,0,0,1,1.419-1.041,1.981,1.981,0,0,0,.568-.378,17.848,17.848,0,0,1,4.353-1.892.569.569,0,0,0,.378-.095,20.044,20.044,0,0,1,4.163-.473h1.7a15.262,15.262,0,0,1,5.488,1.514s.189,0,.189.095a16.734,16.734,0,0,1,4.069,2.649,17.248,17.248,0,0,1,5.677,10.6h0a18.373,18.373,0,0,1,.189,2.271Z" transform="translate(-304.305 -380.205)" fill="#a3ad6d"/>
              <path id="Path_91" data-name="Path 91" d="M340.2,397.763a17.261,17.261,0,0,1-9.557,15.423h0a4.094,4.094,0,0,1-.946-1.135c3.217-9.273,0-14.288,0-14.288h0l.189-1.609v-.284c.568-2.744,1.8-7.948,4.447-11.071a16.958,16.958,0,0,1,5.772,12.868Z" transform="translate(-305.666 -380.448)" fill="#fff" opacity="0.115" style="isolation: isolate"/>
              <path id="Path_92" data-name="Path 92" d="M308.374,394.708s-3.028,3.028-2.082,10.787a16.889,16.889,0,0,1-1.892-7.854,17.073,17.073,0,0,1,6.34-13.341A20.687,20.687,0,0,0,308.374,394.708Z" transform="translate(-304.305 -380.421)" fill="#fff" opacity="0.6" style="isolation: isolate"/>
              <path id="Path_93" data-name="Path 93" d="M333.195,384.553c-3.785,4.353-4.731,12.868-4.731,12.868-10.408,2.555-19.965-2.933-19.965-2.933a20.687,20.687,0,0,1,2.366-10.408,17.218,17.218,0,0,1,22.33.473Z" transform="translate(-304.525 -380.2)" fill="#fff" opacity="0.352" style="isolation: isolate"/>
              <path id="Path_94" data-name="Path 94" d="M329.554,414.5a17.244,17.244,0,0,1-7.664,1.8A17.427,17.427,0,0,1,309.4,411c3.217,1.892,9.841,4.636,19.208,2.366a4.094,4.094,0,0,0,.946,1.135Z" transform="translate(-304.574 -381.857)" fill="#fff" opacity="0.2" style="isolation: isolate"/>
              <g id="Group_125" data-name="Group 125" transform="translate(0 0.095)" opacity="0.2" style="isolation: isolate">
                <path id="Path_95" data-name="Path 95" d="M330.1,381.995a22.618,22.618,0,0,0-1.23,1.987,31.235,31.235,0,0,0-1.8,4.069,36.7,36.7,0,0,0-1.325,4.258c-.379,1.419-.662,2.933-.946,4.353a18.069,18.069,0,0,1,.662-4.447,32.847,32.847,0,0,1,1.23-4.353,31.774,31.774,0,0,1,1.892-4.069,13.52,13.52,0,0,1,1.325-1.892s.189,0,.189.095Z" transform="translate(-305.403 -380.386)"/>
                <path id="Path_96" data-name="Path 96" d="M324.042,380.3c-.189.473-.473.852-.662,1.325a37.315,37.315,0,0,0-1.7,4.542c-.473,1.514-.852,3.122-1.23,4.731s-.662,3.217-.946,4.826a29.049,29.049,0,0,1,.568-4.92,44.508,44.508,0,0,1,1.135-4.826,23.9,23.9,0,0,1,1.8-4.542,7.059,7.059,0,0,1,.662-1.135h.378Z" transform="translate(-305.118 -380.3)"/>
                <path id="Path_97" data-name="Path 97" d="M317.912,380.8c0,.284-.189.473-.284.757a36.712,36.712,0,0,0-1.325,4.258c-.378,1.419-.662,2.933-.946,4.447s-.473,2.933-.757,4.447a36.759,36.759,0,0,1,.378-4.542,33.6,33.6,0,0,1,.852-4.447,23.407,23.407,0,0,1,1.419-4.353c0-.189.189-.379.189-.473a.569.569,0,0,0,.378-.095Z" transform="translate(-304.854 -380.327)"/>
                <path id="Path_98" data-name="Path 98" d="M312.987,382.9a31.933,31.933,0,0,0-.852,3.217c-.284,1.23-.473,2.46-.662,3.6-.189,1.23-.284,2.46-.473,3.69v-3.69a24.874,24.874,0,0,1,.568-3.69,23.226,23.226,0,0,1,.757-2.744,1.981,1.981,0,0,0,.568-.378Z" transform="translate(-304.661 -380.44)"/>
                <path id="Path_99" data-name="Path 99" d="M334.617,403.935a19.843,19.843,0,0,1-.662,5.3,11.039,11.039,0,0,1-.946,2.46c-.095.284-.284.568-.378.852h0s-.189.095-.189.189a23,23,0,0,0,1.23-3.6,16,16,0,0,0,.568-5.2,18.547,18.547,0,0,0-.757-5.109A18.17,18.17,0,0,0,331.4,394a17.315,17.315,0,0,1,2.46,4.731,20.12,20.12,0,0,1,.946,5.2Z" transform="translate(-305.758 -381.037)"/>
                <path id="Path_100" data-name="Path 100" d="M338.131,403.247v1.419l-.284,1.419a4.75,4.75,0,0,1-.189,1.135,2.876,2.876,0,0,1-.473.662,11.353,11.353,0,0,0,.284-1.892v-1.419a7.3,7.3,0,0,0,.189-1.419v-1.419a7.163,7.163,0,0,0-.095-1.419,20.6,20.6,0,0,0-1.419-5.393A21.03,21.03,0,0,0,333.4,390a15.825,15.825,0,0,1,3.122,4.731,18.979,18.979,0,0,1,1.514,5.488,7.162,7.162,0,0,0,.095,1.419v1.609Z" transform="translate(-305.865 -380.822)"/>
                <path id="Path_101" data-name="Path 101" d="M340.5,397.887v-.095a23.564,23.564,0,0,0-1.892-5.677A17.772,17.772,0,0,0,335.3,387.1a16.923,16.923,0,0,1,3.6,4.92,21.52,21.52,0,0,1,1.514,3.69h0a18.372,18.372,0,0,1,.189,2.271Z" transform="translate(-305.968 -380.666)"/>
                <path id="Path_102" data-name="Path 102" d="M307.517,392.4a15.234,15.234,0,0,0-1.987,2.839,18.4,18.4,0,0,0-1.23,2.839v-1.419c.284-.568.568-1.041.852-1.609a9.96,9.96,0,0,1,2.271-2.649Z" transform="translate(-304.3 -380.951)"/>
                <path id="Path_103" data-name="Path 103" d="M308.482,387.6c-.757.852-1.419,1.609-2.082,2.46l.852-1.419a10.714,10.714,0,0,1,1.23-.946Z" transform="translate(-304.413 -380.693)"/>
                <path id="Path_104" data-name="Path 104" d="M308.6,399.195c1.609.568,3.122,1.135,4.731,1.609a41.363,41.363,0,0,0,4.92,1.135,23.435,23.435,0,0,0,9.935-.095,12.647,12.647,0,0,1-4.92.946,30.961,30.961,0,0,1-5.11-.379,29.024,29.024,0,0,1-4.92-1.325A25.345,25.345,0,0,1,308.6,399.1Z" transform="translate(-304.531 -381.311)"/>
                <path id="Path_105" data-name="Path 105" d="M308.6,403.5a48.074,48.074,0,0,0,4.826,1.609,42.691,42.691,0,0,0,5.015.946,30.851,30.851,0,0,0,5.11.284h1.23l1.23-.189a23.77,23.77,0,0,0,2.555-.378,22.508,22.508,0,0,1-5.015,1.041,46.038,46.038,0,0,1-5.11-.095,29.479,29.479,0,0,1-5.015-1.041,29.029,29.029,0,0,1-4.731-1.892Z" transform="translate(-304.531 -381.548)"/>
                <path id="Path_106" data-name="Path 106" d="M309,407.3a38.717,38.717,0,0,0,4.636,1.7,28.989,28.989,0,0,0,4.826.946,21.533,21.533,0,0,0,2.46.189h2.46a28.178,28.178,0,0,0,4.826-.662,22.025,22.025,0,0,1-4.826,1.041,29.578,29.578,0,0,1-5.015,0,21.073,21.073,0,0,1-4.826-1.135A24.758,24.758,0,0,1,309,407.3Z" transform="translate(-304.553 -381.753)"/>
                <path id="Path_107" data-name="Path 107" d="M309.7,410.1a24.06,24.06,0,0,0,4.353,1.609,25.869,25.869,0,0,0,4.542.946,25.014,25.014,0,0,0,4.636.189h1.135l1.135-.284a19.373,19.373,0,0,0,2.271-.473,14.562,14.562,0,0,1-4.542,1.135,19.776,19.776,0,0,1-4.731,0,24.352,24.352,0,0,1-4.542-1.041,17.478,17.478,0,0,1-4.258-1.987Z" transform="translate(-304.591 -381.903)"/>
              </g>
            </g>
          </g>
        </g>
        <g id="Travel_bag" data-name="Travel bag" transform="translate(315.656 309.54)">
          <g id="Group_130" data-name="Group 130">
            <path id="Path_108" data-name="Path 108" d="M113.8,369.493s3.406-5.015,9.367-5.393,11.071,7.286,11.071,7.286h-1.892s-4.826-5.2-8.327-5.2-6.813,4.258-6.813,4.258l-3.406-.946Z" transform="translate(-62.989 -364.086)" fill="#31483b"/>
            <g id="Group_128" data-name="Group 128" transform="translate(0 42.12)">
              <path id="Path_109" data-name="Path 109" d="M60.1,411.912c2.082-3.5,25.264-1.23,30.562-3.312l2.839,4.826s-3.974,2.176-10.692,1.419-16.653-1.041-19.3,1.325L60.1,411.817Z" transform="translate(-60.1 -408.6)" fill="#263238"/>
              <path id="Path_110" data-name="Path 110" d="M60.1,411.912c2.082-3.5,25.264-1.23,30.562-3.312l2.839,4.826s-3.974,2.176-10.692,1.419-16.653-1.041-19.3,1.325L60.1,411.817Z" transform="translate(-60.1 -408.6)" opacity="0.3" style="isolation: isolate"/>
            </g>
            <path id="Path_111" data-name="Path 111" d="M158.969,399.176a17.257,17.257,0,0,1-.662,2.366c-1.892,6.434-4.826,11.638-6.907,12.49H91.221a5.2,5.2,0,0,1-4.258-2.082h0A8.321,8.321,0,0,1,86.4,411c-4.163-8.705-8.327-26.021-2.46-33.969a11.881,11.881,0,0,1,2.082-2.271.33.33,0,0,1,.189-.095,16.094,16.094,0,0,1,4.069-2.46h0c4.163-1.892,9.273-2.744,14.193-3.122,1.419-.095,2.839-.189,4.258-.189,3.69-.095,7.1,0,9.841,0,9.651.284,17.316,3.122,22.425,2.649a15.748,15.748,0,0,1,5.677.473,10.89,10.89,0,0,1,1.609.568,25.715,25.715,0,0,1,6.529,3.974c5.866,4.731,5.961,14.382,3.974,22.709Z" transform="translate(-61.226 -364.342)" fill="#9f87af"/>
            <path id="Path_112" data-name="Path 112" d="M158.969,399.176a17.257,17.257,0,0,1-.662,2.366c-1.892,6.434-4.826,11.638-6.907,12.49H91.221a5.2,5.2,0,0,1-4.258-2.082h0A8.321,8.321,0,0,1,86.4,411c-4.163-8.705-8.327-26.021-2.46-33.969a11.881,11.881,0,0,1,2.082-2.271.33.33,0,0,1,.189-.095,16.094,16.094,0,0,1,4.069-2.46h0c4.163-1.892,9.273-2.744,14.193-3.122,1.419-.095,2.839-.189,4.258-.189,3.69-.095,7.1,0,9.841,0,9.651.284,17.316,3.122,22.425,2.649a15.748,15.748,0,0,1,5.677.473,10.89,10.89,0,0,1,1.609.568,25.715,25.715,0,0,1,6.529,3.974c5.866,4.731,5.961,14.382,3.974,22.709Z" transform="translate(-61.226 -364.342)" fill="#789fd0" style="isolation: isolate"/>
            <g id="Group_129" data-name="Group 129" transform="translate(19.899 4.555)">
              <path id="Path_113" data-name="Path 113" d="M149.8,398.768c-4.353,0-12.963,2.082-25.642-.757a40.405,40.405,0,0,0-18.073-.095c-.095-1.892-.284-3.974-.473-6.245-1.135-15.329-9.935-21.857-15.234-19.3h0a23.118,23.118,0,0,0-4.069,2.46.293.293,0,0,0-.189.095,11.881,11.881,0,0,0-2.082,2.271c-5.866,7.948-1.7,25.264,2.46,33.969a8.32,8.32,0,0,0,.568.946h0a5.439,5.439,0,0,0,4.069,1.8h10.787c4.353,0,4.92-4.069,4.447-12.679.757-.473,1.7-.946,2.649-1.609,2.649-1.7,13.058-.852,17.6.852s16.275,2.46,21.952,1.514a38.942,38.942,0,0,1,9.841-.189c.189-.757.473-1.609.662-2.366-1.987-.189-6.056-.568-9.178-.568Z" transform="translate(-81.13 -369.058)" fill="#88af94" style="isolation: isolate"/>
              <path id="Path_114" data-name="Path 114" d="M111.95,376.943c2.649,9.557,4.447,12.868,5.11,13.815s19.776,3.217,23.371,3.217a67.581,67.581,0,0,0,12.3-1.23c2.46-.568,3.217-12.868-2.933-20.249-.568-.189-1.041-.378-1.609-.568,3.312,7.475,3.406,16.653,3.028,17.978-.568,1.8-6.15,1.514-8.8,1.514s-18.924-1.041-20.627-1.7a9.117,9.117,0,0,1-3.974-3.217c-1.325-1.7-1.514-7.475-3.879-12.49a19.745,19.745,0,0,0-3.879-5.109c-1.419,0-2.839.095-4.258.189a12.686,12.686,0,0,1,6.056,7.854Z" transform="translate(-82.457 -368.9)" fill="#5ea6b8" style="isolation: isolate"/>
            </g>
            <path id="Path_115" data-name="Path 115" d="M90.568,386.595l-5.2,1.325s-3.69,10.692-1.514,15.139c2.271,4.447-15.139,10.692-23.75,7.57l3.406,4.353s20.627-1.325,24.507-9.178c3.974-7.853-1.7-9.084-2.082-11.26s4.636-8.043,4.636-8.043Z" transform="translate(-60.1 -365.292)" fill="#263238"/>
            <path id="Path_116" data-name="Path 116" d="M90.568,386.595l-5.2,1.325s-3.69,10.692-1.514,15.139c2.271,4.447-15.139,10.692-23.75,7.57l3.406,4.353s20.627-1.325,24.507-9.178c3.974-7.853-1.7-9.084-2.082-11.26s4.636-8.043,4.636-8.043Z" transform="translate(-60.1 -365.292)" fill="#31483b" style="isolation: isolate"/>
          </g>
        </g>
        <g id="Character" transform="translate(173.624 76.782)">
          <g id="_lt_Group_gt_" data-name="&amp;lt;Group&amp;gt;" transform="translate(0 0)">
            <path id="Path_126" data-name="Path 126" d="M145.595,278.495s.473,7.191,1.135,16.653c.473,5.961.946,12.774,1.514,19.4.757,8.894,1.7,17.41,2.555,22.709.852,4.826,11.733,65.1,11.733,65.1h7.286c-2.271-56.2-5.866-77.967-6.056-81.279,0-1.041,0-2.555-.095-4.353-.095-6.434-.284-16.559-.378-23.939V283.6L145.5,278.4Z" transform="translate(-40.366 -126.813)" fill="#e4897b"/>
            <path id="Path_127" data-name="Path 127" d="M181.1,324.031c.284,4.92,3.217,78.251,3.217,78.251h8.043c4.069-58.381,2.555-78.724,3.312-82.7h0c1.23-6.907,2.46-15.9,3.217-22.614.662-5.393,1.041-9.273,1.041-9.273l-16.369-7.1s-1.041,8.516-1.7,18.735c-.378,5.109-.662,10.692-.757,15.8,0,3.217,0,6.34.095,9.084Z" transform="translate(-104.163 -126.931)" fill="#e4897b"/>
            <path id="Path_128" data-name="Path 128" d="M150.971,295.438c.473,5.961,2.1,12.188,3.135,19.454l14.3,1.85c-.693-6.714-2.493-16.623-2.587-24Z" transform="translate(-42.193 -95.712)" opacity="0.2" style="isolation: isolate"/>
            <path id="Path_129" data-name="Path 129" d="M201.749,321.483c.186-6.916.3-15.283,1.057-22l-14.966,1.753c-.378,5.109.98,11.113.885,16.222Z" transform="translate(-110.929 -97.439)" opacity="0.2" style="isolation: isolate"/>
            <path id="Path_130" data-name="Path 130" d="M157.238,407.1h9.651a.691.691,0,0,1,.662.568l1.609,7.1a1.254,1.254,0,0,1-.946,1.419h-.284c-3.122,0-5.393-.284-9.367-.284s-9.746.284-13.058.284-3.785-3.312-2.365-3.6c6.15-1.325,10.787-3.217,12.679-4.92a1.771,1.771,0,0,1,1.325-.473Z" transform="translate(-36.775 -133.736)" fill="#253238"/>
            <path id="Path_131" data-name="Path 131" d="M200.538,406.8h9.651a.691.691,0,0,1,.662.568l1.609,7.1a1.254,1.254,0,0,1-.946,1.419h-.284c-3.122,0-5.393-.284-9.367-.284s-9.746.284-13.058.284-3.785-3.312-2.366-3.6c6.15-1.325,10.787-3.217,12.679-4.92a1.771,1.771,0,0,1,1.325-.473Z" transform="translate(-121.045 -133.72)" fill="#253238"/>
            <g id="Group_147" data-name="Group 147" transform="translate(94.339 21.054)">
              <g id="Group_133" data-name="Group 133" transform="translate(0)">
                <path id="Path_134" data-name="Path 134" d="M155.289,140.2a5.336,5.336,0,0,0,.378,1.135,10.459,10.459,0,0,0,3.974,5.2,5.647,5.647,0,0,0,1.419.852,10.15,10.15,0,0,0,8.61.378,10.379,10.379,0,0,0,3.312-2.271c3.974-4.069,3.879-8.705,4.353-16.559a12.213,12.213,0,0,0-.757-4.92,10.707,10.707,0,0,0-14.1-5.772c-7.759,3.122-8.8,14.855-7.1,21.952Z" transform="translate(-154.617 -114.604)" fill="#e4897b"/>
                <path id="Path_135" data-name="Path 135" d="M162.8,148.112a5.648,5.648,0,0,0,1.419.852,10.15,10.15,0,0,0,8.61.378,11.85,11.85,0,0,0-1.419-2.649,14.945,14.945,0,0,0-8.61,1.419Z" transform="translate(-157.776 -116.173)" opacity="0.2" style="isolation: isolate"/>
                <path id="Path_136" data-name="Path 136" d="M174.77,157.833c-3.879,3.5-13.342,2.176-13.342,2.176s-5.961-1.609-4.636-3.5c3.5-.568,5.2-2.176,5.866-4.258a10.949,10.949,0,0,0,.378-3.974,18.614,18.614,0,0,0-.284-2.271l11.733-8.705c-1.514,5.772-3.406,16.275.378,20.438Z" transform="translate(-153.944 -115.675)" fill="#e4897b"/>
                <path id="Path_137" data-name="Path 137" d="M155.676,132.853l-1.7.662.852-3.5s-2.46-3.69,0-7.1c0,0-6.813-2.082-3.028-5.677,1.419-1.325,3.217,0,7.948-2.082,2.555-1.135,10.6-1.23,10.976,2.082,0,0,5.772,0,6.434,9.841A19.476,19.476,0,0,1,171,142.6s-7,1.609-10.408-1.135c-3.406-2.839-5.015-8.61-5.015-8.61Z" transform="translate(-150.652 -114.446)" fill="#263238"/>
                <path id="Path_138" data-name="Path 138" d="M173.747,134.208a5.2,5.2,0,0,1-2.649,3.5c-1.609.662-2.649-1.609-2.46-3.974.189-2.082,1.325-5.015,3.028-4.636s2.555,3.028,1.987,5.109Z" transform="translate(-164.275 -115.232)" fill="#e4897b"/>
              </g>
            </g>
            <g id="Group_151" data-name="Group 151" transform="translate(71.822 138.575)">
              <path id="Path_132" data-name="Path 132" d="M176.938,308.018c0-.662-.189-1.325-.189-2.082-.946-9.651-1.987-21.29-2.839-32.549-3.312,8.8-4.636,21.1-6.34,34.631H147.7a582.457,582.457,0,0,1,8.232-75.318h42.2c0,4.353.568,46.364,1.609,75.318h-22.8Z" transform="translate(-146.092 -232.7)" fill="#263238"/>
              <path id="Path_133" data-name="Path 133" d="M176.938,308.018c0-.662-.189-1.325-.189-2.082-.946-9.651-1.987-21.29-2.839-32.549-3.312,8.8-4.636,21.1-6.34,34.631H147.7a582.457,582.457,0,0,1,8.232-75.318h42.2c0,4.353.568,46.364,1.609,75.318h-22.8Z" transform="translate(-146.092 -232.7)" fill="#fff" opacity="0.2" style="isolation: isolate"/>
              <path id="Path_139" data-name="Path 139" d="M160.067,274.522c.852,11.165,1.892,22.9,2.839,32.549,1.419-14,3.217-23.939,3.217-23.939s1.609-1.325,6.15-8.611,0-20.722,0-20.722C172.367,266.385,160.067,274.522,160.067,274.522Z" transform="translate(-132.344 -233.835)" opacity="0.2" style="isolation: isolate"/>
              <path id="Path_140" data-name="Path 140" d="M181.1,310.5l.852,3.312h21.2v-3.028Z" transform="translate(-181.1 -236.885)" fill="#7e6a0a"/>
              <path id="Path_141" data-name="Path 141" d="M145.4,311l.568,3.028H170L171.421,311Z" transform="translate(-115.595 -236.912)" fill="#7e6a0a"/>
            </g>
            <g id="Group_137" data-name="Group 137" transform="translate(94.971 15.807)">
              <path id="Path_162" data-name="Path 162" d="M153.482,109.664c-11.26-3.879-14,11.071-2.933,21.2,11.165,10.124,23.939,11.354,25.453,6.245,1.419-5.109-5.393-21.573-22.52-27.44Z" transform="translate(-143.507 -108.907)" fill="#fcdd99"/>
              <path id="Path_163" data-name="Path 163" d="M160.3,108.9c-5.772,0-13.909,5.866-13.909,5.866s-1.135,6.245,4.542,11.733c5.772,5.488,10.881,6.34,14.1,4.258s4.069-10.408,4.069-10.408a6.559,6.559,0,0,0-4.069-4.258S164.087,108.9,160.3,108.9Z" transform="translate(-139.068 -108.9)" fill="#fcdd99"/>
              <path id="Path_164" data-name="Path 164" d="M150.935,126.516c5.772,5.488,10.881,6.34,14.1,4.258a4.38,4.38,0,0,0,1.419-1.514c2.082-3.122,2.649-8.894,2.649-8.894-5.488,6.623-11.828-.189-12.774-4.826a7.292,7.292,0,0,1,1.514-6.34,33.062,33.062,0,0,0-10.03,4.636,14.152,14.152,0,0,0-1.419.946S145.257,121.028,150.935,126.516Z" transform="translate(-139.068 -108.916)" fill="#e77051" style="isolation: isolate"/>
              <path id="Path_165" data-name="Path 165" d="M153.735,126.779c5.772,5.488,10.881,6.34,14.1,4.258a4.38,4.38,0,0,0,1.419-1.514c-5.772,1.7-12.585-1.135-16.275-6.245a13.105,13.105,0,0,1-2.366-9.178,14.155,14.155,0,0,0-1.419.946S148.057,121.291,153.735,126.779Z" transform="translate(-141.868 -109.18)" fill="#fff" opacity="0.6" style="isolation: isolate"/>
            </g>
            <g id="Group_150" data-name="Group 150">
              <g id="Group_134" data-name="Group 134" transform="translate(96.903 55.057)">
                <path id="Path_142" data-name="Path 142" d="M153.3,156.265s3.406-5.488,12.111-5.866,9.367,5.583,9.367,5.583Z" transform="translate(-153.3 -150.382)" fill="#407bff"/>
                <path id="Path_143" data-name="Path 143" d="M153.3,156.265s3.406-5.488,12.111-5.866,9.367,5.583,9.367,5.583Z" transform="translate(-153.3 -150.382)" fill="#ffd400" style="isolation: isolate"/>
              </g>
              <g id="Group_149" data-name="Group 149" transform="translate(0 0)">
                <path id="Path_144" data-name="Path 144" d="M191.965,152.995s-.716,55.487.946,88.47L142.1,238.342c.568-51.852,7.57-84.591,7.57-84.591s13.152,2.744,23.75,2.366a75.9,75.9,0,0,0,18.64-3.217Z" transform="translate(-63.932 -95.46)" fill="#67c1a8"/>
                <g id="Group_148" data-name="Group 148">
                  <g id="Group_132" data-name="Group 132" transform="translate(120.501 2.713)">
                    <path id="Path_118" data-name="Path 118" d="M119.208,155.544s-4.447,8.989,6.34,23.182l23.75-17.5L139.836,144l-20.627,11.449Z" transform="translate(-118.3 -97.694)" fill="#407bff"/>
                    <g id="Group_159" data-name="Group 159" transform="translate(9.235 0)">
                      <path id="Path_117" data-name="Path 117" d="M70.441,151.154S90.69,139.8,94.853,136.867s20.412-18.664,27.913-25.548c-.212,1.262-.852-2.555,1.041-3.974,1.892-1.514,9.178-6.245,10.314-6.245,1.828.612,1.849,2.431,2.369,3.878a11.91,11.91,0,0,1,.918,5.317c.471,1.061-.792,1.968-.918,2.625-.159,1.07-2.955,2.4-5.217,2.9-2.887.639-4.532,1.172-4.532,1.172s-21.384,24.885-24.7,28.386-26.21,18.356-26.21,18.356Z" transform="translate(-70.441 -95.386)" fill="#e4897b"/>
                      <path id="Path_181" data-name="Path 181" d="M38.078,73.121a26.7,26.7,0,0,1,.766-3.388c.416-1.205.651-7.654,0-9.515,1.437-1.048,2.029-.631,2.029-.631a17.339,17.339,0,0,1,.883,4.793c-.127,1.684-.559,4.024,0,4.517S38.078,73.121,38.078,73.121Z" transform="translate(14.175 -57.509)" fill="#e4897b"/>
                      <path id="Path_183" data-name="Path 183" d="M0,7.771,9.395,0c1.618.213,2.57-.49.913,1.783a50.317,50.317,0,0,1-6.64,7.639c1.81.137,11.023-6.186,11.394-6.586s1.639.278,1.639.278L15.611,4.128l1.363.982S8.135,12.974,6.579,14.22c3.137.258,8.875-.616,10.1-1.285a1.141,1.141,0,0,1,0,1.669s-5.823,2.178-10.713,3.448S0,7.771,0,7.771Z" transform="matrix(0.998, -0.07, 0.07, 0.998, 57.837, 1.19)" fill="#e4897b" opacity="0"/>
                    </g>
                    <path id="Path_119" data-name="Path 119" d="M125.226,178.731l11.26-8.232L138,169.458l6.34-4.636,4.731-3.5-3.5-6.34-1.987-3.6-3.974-7.286-3.879,2.176-3.312,1.892-13.342,7.475a9.785,9.785,0,0,0-.757,3.217c-.473,3.785.189,10.787,7.1,19.965Z" transform="translate(-117.979 -97.699)" fill="#ffd400" style="isolation: isolate"/>
                    <path id="Path_120" data-name="Path 120" d="M138.716,179.57l11.26-8.232c-3.879-7.948-13.815-10.787-18.356-11.638-.473,3.785.189,10.787,7.1,19.965Z" transform="translate(-131.468 -98.539)" opacity="0.073" style="isolation: isolate"/>
                    <g id="Group_131" data-name="Group 131" transform="translate(8.383 48.577)" opacity="0.2">
                      <path id="Path_121" data-name="Path 121" d="M132.4,148.292l3.312,1.892V146.4Z" transform="translate(-126.439 -146.4)" fill="#bfafaf"/>
                      <path id="Path_122" data-name="Path 122" d="M121.9,152.935l4.163,5.961,1.8-3.5-1.987-3.6Z" transform="translate(-108.653 -146.69)" fill="#bfafaf"/>
                      <path id="Path_123" data-name="Path 123" d="M123.2,162.4l1.514,8.043,6.34-4.731Z" transform="translate(-113.076 -147.261)" fill="#bfafaf"/>
                      <path id="Path_124" data-name="Path 124" d="M141.791,157.562l-2.271,5.961L134.6,156.9Z" transform="translate(-134.6 -146.965)" fill="#bfafaf"/>
                    </g>
                  </g>
                  <g id="Group_136" data-name="Group 136" transform="translate(78.073 57.44)">
                    <path id="Path_146" data-name="Path 146" d="M82.712,185.828v1.325A7.881,7.881,0,0,0,83,189.234a24.292,24.292,0,0,0,1.419,4.731h0a49.914,49.914,0,0,0,7.853,12.3,72.207,72.207,0,0,0,5.015,5.583c6.623,7,6.7,5.368,13.058,11.922,16.556-12.539,60.557-6.34,60.652-6.245h0c-3.928-22.554-22.562-34.982-35.861-37.754a45.54,45.54,0,0,0,1.514-12.679,20.365,20.365,0,0,0-.378-4.069,23.892,23.892,0,0,0-3.69-10.124,42.208,42.208,0,0,1-7.1,1.514c-2.555.378-5.677.757-9.462.946a114.42,114.42,0,0,1-19.113-.662c-2.176-.189-4.353-.568-6.718-.946a1.465,1.465,0,0,1-.189.568,114.383,114.383,0,0,0-3.879,11.544c-.378,1.514-.852,3.122-1.23,4.826-.378,1.514-.662,3.217-1.041,4.826h0a71.836,71.836,0,0,0-1.135,10.219Z" transform="translate(-82.712 -152.9)" fill="#ffd400" style="isolation: isolate"/>
                    <g id="Group_135" data-name="Group 135" transform="translate(0 0.946)" opacity="0.2" style="isolation: isolate">
                      <path id="Path_147" data-name="Path 147" d="M174.1,201.3l3.028,7.664a72.2,72.2,0,0,0,5.015,5.583l6.056-11.354Z" transform="translate(-167.571 -156.45)" fill="#bfafaf"/>
                      <path id="Path_148" data-name="Path 148" d="M121.9,193.342l12.017.662a76.787,76.787,0,0,0-5.866-5.2Z" transform="translate(-63.898 -155.777)" fill="#bfafaf"/>
                      <path id="Path_149" data-name="Path 149" d="M138.8,161.6l1.325,12.49,8.516-6.434a20.365,20.365,0,0,0-.378-4.069L138.8,161.6Z" transform="translate(-94.612 -154.314)" fill="#bfafaf"/>
                      <path id="Path_150" data-name="Path 150" d="M157.243,195.593l3.974-12.017L149.2,181.4Z" transform="translate(-117.029 -155.379)" fill="#bfafaf"/>
                      <path id="Path_151" data-name="Path 151" d="M183.71,184.3v8.989l-8.61-3.122Z" transform="translate(-164.029 -155.535)" fill="#bfafaf"/>
                      <path id="Path_152" data-name="Path 152" d="M137.9,211.612l4.069,5.677c1.987-.757,3.974-1.514,6.056-2.082h0l3.028-6.907L137.9,211.706Z" transform="translate(-96.172 -156.826)" fill="#bfafaf"/>
                      <path id="Path_153" data-name="Path 153" d="M125.545,202.7l-6.245,2.649,6.245,4.163Z" transform="translate(-53.066 -156.525)" fill="#bfafaf"/>
                      <path id="Path_154" data-name="Path 154" d="M102.6,216.2c6.15,2.176,8.327,4.636,8.327,4.636a90.661,90.661,0,0,0-4.542-8.137Z" transform="translate(-22.646 -157.063)" fill="#bfafaf"/>
                      <path id="Path_155" data-name="Path 155" d="M161.844,204.1l5.3,5.488-8.043,1.419Z" transform="translate(-132.322 -156.6)" fill="#bfafaf"/>
                      <path id="Path_156" data-name="Path 156" d="M175.392,167.435l-6.245,8.421L164.7,166.3Z" transform="translate(-145.871 -154.567)" fill="#bfafaf"/>
                      <path id="Path_157" data-name="Path 157" d="M186.1,176.346l8.043-5.3-5.772-4.447c-.852,2.933-1.609,6.245-2.271,9.651Z" transform="translate(-184.87 -154.583)" fill="#fff"/>
                      <path id="Path_158" data-name="Path 158" d="M190.6,189.019a20.6,20.6,0,0,0,1.7,6.813l3.312-8.232Z" transform="translate(-190.6 -155.713)" fill="#fff"/>
                      <path id="Path_159" data-name="Path 159" d="M180.9,154.468l5.015,5.2,1.892-4.826c-2.176-.189-4.353-.568-6.718-.946A1.465,1.465,0,0,1,180.9,154.468Z" transform="translate(-173.614 -153.9)" fill="#bfafaf"/>
                      <path id="Path_160" data-name="Path 160" d="M150.6,155.546l3.69,7.854,5.772-8.8C157.507,154.979,154.385,155.357,150.6,155.546Z" transform="translate(-117.199 -153.938)" fill="#bfafaf"/>
                    </g>
                    <path id="Path_161" data-name="Path 161" d="M190.118,186.759v1.325a7.881,7.881,0,0,0,.284,2.082c6.623-10.5,5.015-19.965,5.015-19.965l-3.122,1.514c-.379,1.514-.662,3.217-1.041,4.826h0A71.836,71.836,0,0,0,190.118,186.759Z" transform="translate(-190.118 -153.831)" opacity="0.07" style="isolation: isolate"/>
                  </g>
                  <g id="Group_139" data-name="Group 139" transform="translate(0)">
                    <path id="Path_166" data-name="Path 166" d="M217.029,153.244s4.447,8.989-6.34,23.182l-23.75-17.5L196.4,141.7l20.627,11.449Z" transform="translate(-131.387 -94.858)" fill="#407bff"/>
                    <g id="Group_158" data-name="Group 158">
                      <path id="Path_182" data-name="Path 182" d="M41.806,73.121a26.7,26.7,0,0,0-.766-3.388c-.416-1.205-.651-7.654,0-9.515-1.437-1.048-2.028-.631-2.028-.631a17.34,17.34,0,0,0-.883,4.793c.127,1.684.559,4.024,0,4.517S41.806,73.121,41.806,73.121Z" transform="translate(-16.921 -57.508)" fill="#e4897b"/>
                      <g id="Group_158-2" data-name="Group 158" transform="translate(0 0)">
                        <path id="Path_125" data-name="Path 125" d="M263.012,148.854S242.764,137.5,238.6,134.567s-26.588-24.98-27.913-25.548c0,0,.852-2.555-1.041-3.974-1.892-1.514-9.178-6.245-10.314-6.245s-4.257,9.5-3.784,11.965c1.583,1.3,11.165,3.931,11.165,3.931s21.384,24.885,24.7,28.386,26.21,18.356,26.21,18.356Z" transform="translate(-185.697 -92.55)" fill="#e4897b"/>
                        <path id="Path_184" data-name="Path 184" d="M0,10.379,9.394,18.15c1.618-.213,2.57.49.913-1.783a50.264,50.264,0,0,0-6.64-7.639c1.81-.137,11.022,6.186,11.393,6.586s1.639-.278,1.639-.278L15.61,14.022l1.362-.982S8.135,5.176,6.579,3.93c3.137-.258,8.873.616,10.1,1.285a1.141,1.141,0,0,0,0-1.669S10.856,1.368,5.967.1,0,10.379,0,10.379Z" transform="matrix(-0.998, -0.07, 0.07, -0.998, 17.011, 19.295)" fill="#e4897b" opacity="0"/>
                      </g>
                    </g>
                    <path id="Path_167" data-name="Path 167" d="M186.9,159.026l6.245,4.542,9.178,6.718,8.421,6.15c.568-.757,1.041-1.419,1.514-2.082,1.041-1.514,1.892-3.028,2.649-4.353a24.787,24.787,0,0,0,3.122-11.449,12.781,12.781,0,0,0-.946-5.3l-5.3-2.933-9.084-5.015-3.974-2.176-2.271-1.23-9.462,17.221Z" transform="translate(-131.441 -94.868)" fill="#ffd400" style="isolation: isolate"/>
                    <g id="Group_138" data-name="Group 138" transform="translate(61.704 48.167)" opacity="0.2">
                      <path id="Path_168" data-name="Path 168" d="M199.2,164.671l9.178,6.718,4.069-8.989Z" transform="translate(-199.2 -144.138)" fill="#bfafaf"/>
                      <path id="Path_169" data-name="Path 169" d="M203.1,149.156l8.421,3.312.284-7.1-4.069-2.271Z" transform="translate(-202.248 -143.1)" fill="#bfafaf"/>
                      <path id="Path_170" data-name="Path 170" d="M187.095,156.566l9.178,2.366a12.781,12.781,0,0,0-.946-5.3l-5.3-2.933L187,156.472Z" transform="translate(-171.482 -143.509)" fill="#bfafaf"/>
                      <path id="Path_171" data-name="Path 171" d="M190.2,169.1l1.514,6.718c1.041-1.514,1.892-3.028,2.649-4.353L190.2,169.1Z" transform="translate(-172.601 -144.499)" fill="#fff"/>
                    </g>
                  </g>
                </g>
              </g>
            </g>
          </g>
        </g>
        <g id="Luggage" transform="translate(125.918 206.455)">
          <g id="Group_142" data-name="Group 142" transform="translate(0 0)">
            <rect id="Rectangle_36" data-name="Rectangle 36" width="11.828" height="58.949" transform="translate(25.958 4.268) rotate(-4.5)" fill="none" stroke="#263238" stroke-miterlimit="10" stroke-width="3"/>
            <g id="Group_141" data-name="Group 141" transform="translate(44.362 143.184)">
              <path id="Path_174" data-name="Path 174" d="M235.893,407.7a14.224,14.224,0,0,0-1.892.189,3.8,3.8,0,0,0-3.5,4.069,3.9,3.9,0,0,0,4.163,3.5,14.218,14.218,0,0,0,1.892-.189,3.8,3.8,0,0,0,3.5-4.069A3.9,3.9,0,0,0,235.893,407.7Z" transform="translate(-230.484 -407.59)" fill="#5c5218"/>
              <path id="Path_175" data-name="Path 175" d="M238.163,411.1A3.846,3.846,0,1,1,234,407.6,3.891,3.891,0,0,1,238.163,411.1Z" transform="translate(-228.592 -407.584)" fill="#7e7122" style="isolation: isolate"/>
            </g>
            <g id="Group_168" data-name="Group 168" transform="translate(10.567 144.184)">
              <path id="Path_174-2" data-name="Path 174" d="M235.893,407.7a14.224,14.224,0,0,0-1.892.189,3.8,3.8,0,0,0-3.5,4.069,3.9,3.9,0,0,0,4.163,3.5,14.218,14.218,0,0,0,1.892-.189,3.8,3.8,0,0,0,3.5-4.069A3.9,3.9,0,0,0,235.893,407.7Z" transform="translate(-230.484 -407.59)" fill="#5c5218"/>
              <path id="Path_175-2" data-name="Path 175" d="M238.163,411.1A3.846,3.846,0,1,1,234,407.6,3.891,3.891,0,0,1,238.163,411.1Z" transform="translate(-228.592 -407.584)" fill="#7e7122" style="isolation: isolate"/>
            </g>
            <rect id="Rectangle_37" data-name="Rectangle 37" width="19.776" height="94.337" rx="2.7" transform="translate(26.817 51.688) rotate(-4.5)" fill="#a29e40"/>
            <rect id="Rectangle_38" data-name="Rectangle 38" width="12.49" height="94.337" rx="2.7" transform="translate(26.772 51.685) rotate(-4.5)" fill="#fff" opacity="0.2" style="isolation: isolate"/>
            <rect id="Rectangle_39" data-name="Rectangle 39" width="16.085" height="4.92" rx="2" transform="translate(23.534 1.326) rotate(-4.5)" fill="#263238"/>
            <rect id="Rectangle_40" data-name="Rectangle 40" width="16.085" height="4.92" rx="2" transform="translate(23.534 1.326) rotate(-4.5)" fill="#fff" opacity="0.2" style="isolation: isolate"/>
            <rect id="Rectangle_41" data-name="Rectangle 41" width="4.826" height="4.92" rx="2" transform="translate(34.729 0.379) rotate(-4.5)" opacity="0.2" style="isolation: isolate"/>
            <path id="Path_176" data-name="Path 176" d="M240,320.143l6.34,80.428a5.327,5.327,0,0,0,5.772,4.92l29.332-2.271a3.871,3.871,0,0,0,3.5-4.069l-6.529-83.55a3.871,3.871,0,0,0-4.069-3.5l-29.332,2.271a5.328,5.328,0,0,0-4.92,5.772Z" transform="translate(-239.996 -259.264)" fill="#407bff"/>
            <path id="Path_177" data-name="Path 177" d="M240,320.143l6.34,80.428a5.327,5.327,0,0,0,5.772,4.92l29.332-2.271a3.871,3.871,0,0,0,3.5-4.069l-6.529-83.55a3.871,3.871,0,0,0-4.069-3.5l-29.332,2.271a5.328,5.328,0,0,0-4.92,5.772Z" transform="translate(-239.996 -259.264)" fill="#97b256" style="isolation: isolate"/>
            <path id="Path_178" data-name="Path 178" d="M240,313.235h0c0,.095,1.041,0,1.041,0a3.8,3.8,0,0,1,4.069,3.5l6.529,83.55a3.82,3.82,0,0,1-2.555,3.879l12.206-.946a3.871,3.871,0,0,0,3.5-4.069l-6.529-83.55a3.871,3.871,0,0,0-4.069-3.5l-14.1,1.135Z" transform="translate(-219.842 -259.264)" fill="#9bb056" opacity="0.213" style="isolation: isolate"/>
            <rect id="Rectangle_42" data-name="Rectangle 42" width="2.46" height="84.213" rx="1.1" transform="translate(28.571 140.76) rotate(175.5)" opacity="0.2" style="isolation: isolate"/>
            <rect id="Rectangle_43" data-name="Rectangle 43" width="2.46" height="84.213" rx="1.1" transform="translate(22.695 141.596) rotate(175.5)" opacity="0.2" style="isolation: isolate"/>
            <rect id="Rectangle_44" data-name="Rectangle 44" width="2.46" height="84.213" rx="1.1" transform="translate(16.876 141.96) rotate(175.5)" opacity="0.2" style="isolation: isolate"/>
            <rect id="Rectangle_45" data-name="Rectangle 45" width="2.46" height="84.213" rx="1.1" transform="translate(10.963 142.419) rotate(175.5)" opacity="0.2" style="isolation: isolate"/>
          </g>
        </g>
      </g>
    </g>
  </g>
</svg>
