<svg id="Untitled-1" xmlns="http://www.w3.org/2000/svg" width="187.239" height="40.4" viewBox="0 0 187.239 40.4">
  <g id="Group_222" data-name="Group 222" transform="translate(77.792 31.876)">
    <rect id="Rectangle_2960" data-name="Rectangle 2960" width="1.074" height="5.498" transform="translate(1.053 0.222) rotate(-11.9)" fill="#e0e0e0"/>
    <path id="Path_199" data-name="Path 199" d="M128.773,80.45a2.714,2.714,0,1,1-3.223-2.085A2.729,2.729,0,0,1,128.773,80.45Z" transform="translate(-123.404 -75.21)" fill="#29364e"/>
    <path id="Path_200" data-name="Path 200" d="M128.178,81.6a1.326,1.326,0,1,1-1.58-1.011A1.4,1.4,0,0,1,128.178,81.6Z" transform="translate(-124.2 -76.042)" fill="#455b64"/>
  </g>
  <g id="Group_223" data-name="Group 223" transform="translate(84.87 30.386)">
    <rect id="Rectangle_2961" data-name="Rectangle 2961" width="1.074" height="5.498" transform="translate(1.031 0.222) rotate(-11.9)" fill="#e0e0e0"/>
    <path id="Path_201" data-name="Path 201" d="M139.973,78.05a2.714,2.714,0,1,1-3.223-2.085A2.729,2.729,0,0,1,139.973,78.05Z" transform="translate(-134.604 -72.836)" fill="#29364e"/>
    <path id="Path_202" data-name="Path 202" d="M139.378,79.2a1.326,1.326,0,1,1-1.58-1.011A1.4,1.4,0,0,1,139.378,79.2Z" transform="translate(-135.4 -73.669)" fill="#455b64"/>
  </g>
  <path id="Path_203" data-name="Path 203" d="M59.252,50.523c-19.716.758-29.827-8.278-41.265-15.419a14.543,14.543,0,0,0-3.16-1.517,21.668,21.668,0,0,0-11.185-.569H3.2c0,.063,16.493,25.214,16.493,25.214l39.558-7.709Z" transform="translate(-1.367 -26.488)" fill="#ff8a34"/>
  <path id="Path_262" data-name="Path 262" d="M146.333,58.677S144.5,55,129.208,56.108c-8.91.625-68.943,7.221-71.155,10.277-2.275,3.055,44.867,2.569,44.867,2.569L146.4,58.677Z" transform="translate(-21.528 -36.264)" fill="#c9c9c9"/>
  <g id="Group_227" data-name="Group 227" transform="translate(11.564)">
    <g id="Group_224" data-name="Group 224" transform="translate(138.078 17.186)">
      <rect id="Rectangle_2962" data-name="Rectangle 2962" width="1.074" height="5.498" transform="translate(1.036 0.222) rotate(-11.9)" fill="#e0e0e0"/>
      <path id="Path_204" data-name="Path 204" d="M242.473,57.25a2.714,2.714,0,1,1-3.223-2.085A2.73,2.73,0,0,1,242.473,57.25Z" transform="translate(-237.104 -51.98)" fill="#29364e"/>
      <path id="Path_205" data-name="Path 205" d="M241.878,58.4a1.326,1.326,0,1,1-1.58-1.011A1.4,1.4,0,0,1,241.878,58.4Z" transform="translate(-237.9 -52.813)" fill="#455b64"/>
    </g>
    <g id="Group_225" data-name="Group 225" transform="translate(145.156 15.694)">
      <rect id="Rectangle_2963" data-name="Rectangle 2963" width="1.074" height="5.498" transform="translate(1.027 0.222) rotate(-11.9)" fill="#e0e0e0"/>
      <path id="Path_206" data-name="Path 206" d="M253.673,54.95a2.714,2.714,0,1,1-3.223-2.085A2.73,2.73,0,0,1,253.673,54.95Z" transform="translate(-248.304 -49.642)" fill="#29364e"/>
      <path id="Path_207" data-name="Path 207" d="M253.078,56.1a1.326,1.326,0,1,1-1.58-1.011A1.4,1.4,0,0,1,253.078,56.1Z" transform="translate(-249.1 -50.475)" fill="#455b64"/>
    </g>
    <path id="Path_208" data-name="Path 208" d="M18.6,57.68h0l.126.126h.126a3.623,3.623,0,0,1,.442.253,1.338,1.338,0,0,1,.442.19c.442.126.948.253,1.58.379h.063s9.858.821,21.485,1.453c1.137.063,2.338.126,3.539.19,1.643.063,3.286.19,4.992.253,1.9.063,3.792.19,5.624.253,4.613.19,8.973.253,12.638.19,0,0,1.011,0,2.717-.063a21.742,21.742,0,0,0,2.654-.19q2.844-.19,6.635-.758a2.272,2.272,0,0,0,.7-.126,6.386,6.386,0,0,0,1.074-.19.8.8,0,0,0,.379-.063,2.781,2.781,0,0,0,.632-.126,1.487,1.487,0,0,0,.506-.126c.506-.126,1.011-.19,1.58-.316l3.665-.7.821-.19,35.767-7.014,4.992-.948,35.261-6.951h.506c3.16-.758,19.337-4.866,24.2-8.721a6.471,6.471,0,0,0,2.085-2.338.9.9,0,0,1,.126-.379c0-.19.063-.316.063-.506V30.7a2.562,2.562,0,0,0-.316-.569,3.237,3.237,0,0,0-.822-.758,10.172,10.172,0,0,0-1.453-.758l-3.1-1.137-3.728-2.022s-.063,0-.253-.19a15.065,15.065,0,0,0-2.591-1.2c-2.591-.885-6.888-1.643-12.954-.569h0l-84.615,17H82.3c-2.907.569-8.91,1.706-17.568,3.665-2.654.632-5.624,1.264-8.784,2.022-.19,0-.442.126-.632.126s-.379.126-.632.126C45.33,48.643,34.019,51.55,21,55.215a7.039,7.039,0,0,0-1.769.885s-.126.063-.126.126h-.063l-.126.126v.19h0v.316Z" transform="translate(-18.6 -22.965)" fill="#fff"/>
    <g id="Group_226" data-name="Group 226" transform="translate(49.28 7.593)">
      <path id="Path_209" data-name="Path 209" d="M229.784,40.173a.582.582,0,0,0,.7.442h0a.626.626,0,0,0,.506-.7l-.19-.885a.582.582,0,0,0-.7-.442h0a.626.626,0,0,0-.506.7Z" transform="translate(-145.539 -36.306)" fill="#455b64"/>
      <path id="Path_210" data-name="Path 210" d="M222.784,41.673a.582.582,0,0,0,.7.442h0a.626.626,0,0,0,.506-.7l-.19-.885a.582.582,0,0,0-.7-.442h0a.626.626,0,0,0-.506.7Z" transform="translate(-142.962 -36.858)" fill="#455b64"/>
      <path id="Path_211" data-name="Path 211" d="M226.284,40.873a.582.582,0,0,0,.7.442h0a.626.626,0,0,0,.506-.7l-.19-.885a.582.582,0,0,0-.7-.442h0a.626.626,0,0,0-.506.7Z" transform="translate(-144.25 -36.564)" fill="#455b64"/>
      <path id="Path_212" data-name="Path 212" d="M240.284,37.973a.582.582,0,0,0,.7.442h0a.626.626,0,0,0,.506-.7l-.19-.885a.582.582,0,0,0-.7-.442h0a.626.626,0,0,0-.506.7Z" transform="translate(-149.403 -35.496)" fill="#455b64"/>
      <path id="Path_213" data-name="Path 213" d="M233.284,39.473a.582.582,0,0,0,.7.442h0a.626.626,0,0,0,.506-.7l-.19-.885a.582.582,0,0,0-.7-.442h0a.626.626,0,0,0-.506.7Z" transform="translate(-146.827 -36.048)" fill="#455b64"/>
      <path id="Path_214" data-name="Path 214" d="M236.784,38.673a.582.582,0,0,0,.7.442h0a.626.626,0,0,0,.505-.7l-.19-.885a.582.582,0,0,0-.7-.442h0a.626.626,0,0,0-.506.7Z" transform="translate(-148.115 -35.754)" fill="#455b64"/>
      <path id="Path_215" data-name="Path 215" d="M208.784,44.573a.582.582,0,0,0,.7.442h0a.626.626,0,0,0,.506-.7l-.19-.885a.582.582,0,0,0-.7-.442h0a.626.626,0,0,0-.506.7Z" transform="translate(-137.809 -37.925)" fill="#455b64"/>
      <path id="Path_216" data-name="Path 216" d="M201.784,46.073a.582.582,0,0,0,.7.442h0a.626.626,0,0,0,.506-.7l-.19-.885a.582.582,0,0,0-.7-.442h0a.626.626,0,0,0-.506.7Z" transform="translate(-135.232 -38.478)" fill="#455b64"/>
      <path id="Path_217" data-name="Path 217" d="M205.284,45.273a.582.582,0,0,0,.7.442h0a.626.626,0,0,0,.506-.7l-.19-.885a.582.582,0,0,0-.7-.442h0a.626.626,0,0,0-.506.7Z" transform="translate(-136.521 -38.183)" fill="#455b64"/>
      <path id="Path_218" data-name="Path 218" d="M219.284,42.373a.582.582,0,0,0,.7.442h0a.626.626,0,0,0,.506-.7l-.19-.885a.582.582,0,0,0-.7-.442h0a.626.626,0,0,0-.506.7Z" transform="translate(-141.674 -37.116)" fill="#455b64"/>
      <path id="Path_219" data-name="Path 219" d="M212.284,43.873a.582.582,0,0,0,.7.442h0a.626.626,0,0,0,.506-.7l-.19-.885a.582.582,0,0,0-.7-.442h0a.626.626,0,0,0-.506.7Z" transform="translate(-139.097 -37.668)" fill="#455b64"/>
      <path id="Path_220" data-name="Path 220" d="M215.784,43.073a.582.582,0,0,0,.7.442h0a.626.626,0,0,0,.506-.7l-.19-.885a.582.582,0,0,0-.7-.442h0a.626.626,0,0,0-.506.7Z" transform="translate(-140.386 -37.373)" fill="#455b64"/>
      <path id="Path_221" data-name="Path 221" d="M187.784,48.973a.582.582,0,0,0,.7.442h0a.626.626,0,0,0,.505-.7l-.19-.885a.582.582,0,0,0-.7-.442h0a.626.626,0,0,0-.506.7Z" transform="translate(-130.079 -39.545)" fill="#455b64"/>
      <path id="Path_222" data-name="Path 222" d="M180.784,50.473a.582.582,0,0,0,.7.442h0a.626.626,0,0,0,.506-.7l-.19-.885a.582.582,0,0,0-.7-.442h0a.626.626,0,0,0-.506.7Z" transform="translate(-127.503 -40.097)" fill="#455b64"/>
      <path id="Path_223" data-name="Path 223" d="M184.284,49.773a.582.582,0,0,0,.7.442h0a.626.626,0,0,0,.506-.7l-.19-.885a.582.582,0,0,0-.7-.442h0a.626.626,0,0,0-.506.7Z" transform="translate(-128.791 -39.839)" fill="#455b64"/>
      <path id="Path_224" data-name="Path 224" d="M198.284,46.773a.582.582,0,0,0,.7.442h0a.626.626,0,0,0,.506-.7l-.19-.885a.582.582,0,0,0-.7-.442h0a.626.626,0,0,0-.506.7Z" transform="translate(-133.944 -38.735)" fill="#455b64"/>
      <path id="Path_225" data-name="Path 225" d="M191.284,48.273a.582.582,0,0,0,.7.442h0a.626.626,0,0,0,.506-.7l-.19-.885a.582.582,0,0,0-.7-.442h0a.626.626,0,0,0-.506.7Z" transform="translate(-131.368 -39.287)" fill="#455b64"/>
      <path id="Path_226" data-name="Path 226" d="M194.784,47.573a.582.582,0,0,0,.7.442h0a.626.626,0,0,0,.506-.7l-.19-.885a.582.582,0,0,0-.7-.442h0a.626.626,0,0,0-.506.7Z" transform="translate(-132.656 -39.03)" fill="#455b64"/>
      <path id="Path_227" data-name="Path 227" d="M166.784,53.373a.582.582,0,0,0,.7.442h0a.626.626,0,0,0,.506-.7l-.19-.885a.582.582,0,0,0-.7-.442h0a.626.626,0,0,0-.506.7Z" transform="translate(-122.35 -41.164)" fill="#455b64"/>
      <path id="Path_228" data-name="Path 228" d="M159.784,54.873a.582.582,0,0,0,.7.442h0a.626.626,0,0,0,.506-.7l-.19-.885a.582.582,0,0,0-.7-.442h0a.626.626,0,0,0-.506.7Z" transform="translate(-119.773 -41.717)" fill="#455b64"/>
      <path id="Path_229" data-name="Path 229" d="M163.284,54.173a.582.582,0,0,0,.7.442h0a.626.626,0,0,0,.506-.7l-.19-.885a.582.582,0,0,0-.7-.442h0a.626.626,0,0,0-.506.7Z" transform="translate(-121.062 -41.459)" fill="#455b64"/>
      <path id="Path_230" data-name="Path 230" d="M177.284,51.173a.582.582,0,0,0,.7.442h0a.626.626,0,0,0,.506-.7l-.19-.885a.582.582,0,0,0-.7-.442h0a.626.626,0,0,0-.506.7Z" transform="translate(-126.215 -40.355)" fill="#455b64"/>
      <path id="Path_231" data-name="Path 231" d="M170.284,52.673a.582.582,0,0,0,.7.442h0a.626.626,0,0,0,.506-.7l-.19-.885a.582.582,0,0,0-.7-.442h0a.626.626,0,0,0-.506.7Z" transform="translate(-123.638 -40.907)" fill="#455b64"/>
      <path id="Path_232" data-name="Path 232" d="M173.784,51.973a.582.582,0,0,0,.7.442h0a.626.626,0,0,0,.505-.7l-.19-.885a.582.582,0,0,0-.7-.442h0a.626.626,0,0,0-.506.7Z" transform="translate(-124.926 -40.649)" fill="#455b64"/>
      <path id="Path_233" data-name="Path 233" d="M247.084,36.573a.582.582,0,0,0,.7.442h0a.626.626,0,0,0,.505-.7l-.19-.885a.582.582,0,0,0-.7-.442h0a.626.626,0,0,0-.506.7Z" transform="translate(-151.906 -34.981)" fill="#455b64"/>
      <path id="Path_234" data-name="Path 234" d="M243.584,37.273a.582.582,0,0,0,.7.442h0a.626.626,0,0,0,.506-.7l-.19-.885a.582.582,0,0,0-.7-.442h0a.626.626,0,0,0-.506.7Z" transform="translate(-150.618 -35.238)" fill="#455b64"/>
      <path id="Path_235" data-name="Path 235" d="M156.284,55.573a.582.582,0,0,0,.7.442h0a.626.626,0,0,0,.506-.7l-.19-.885a.582.582,0,0,0-.7-.442h0a.626.626,0,0,0-.506.7Z" transform="translate(-118.485 -41.974)" fill="#455b64"/>
      <path id="Path_236" data-name="Path 236" d="M149.284,57.073a.582.582,0,0,0,.7.442h0a.626.626,0,0,0,.506-.7l-.19-.885a.582.582,0,0,0-.7-.442h0a.626.626,0,0,0-.506.7Z" transform="translate(-115.909 -42.526)" fill="#455b64"/>
      <path id="Path_237" data-name="Path 237" d="M152.784,56.373a.582.582,0,0,0,.7.442h0a.626.626,0,0,0,.506-.7l-.19-.885a.582.582,0,0,0-.7-.442h0a.626.626,0,0,0-.506.7Z" transform="translate(-117.197 -42.269)" fill="#455b64"/>
      <path id="Path_238" data-name="Path 238" d="M124.684,61.973a.582.582,0,0,0,.7.442h0a.626.626,0,0,0,.506-.7l-.19-.885a.582.582,0,0,0-.7-.442h0a.626.626,0,0,0-.506.7Z" transform="translate(-106.854 -44.33)" fill="#455b64"/>
      <path id="Path_239" data-name="Path 239" d="M117.684,63.473a.582.582,0,0,0,.7.442h0a.626.626,0,0,0,.506-.7l-.19-.885a.582.582,0,0,0-.7-.442h0a.626.626,0,0,0-.506.7l.19.885Z" transform="translate(-104.277 -44.882)" fill="#455b64"/>
      <path id="Path_240" data-name="Path 240" d="M121.184,62.673a.582.582,0,0,0,.7.442h0a.626.626,0,0,0,.506-.7l-.19-.885a.582.582,0,0,0-.7-.442h0a.626.626,0,0,0-.506.7l.19.885Z" transform="translate(-105.566 -44.588)" fill="#455b64"/>
      <path id="Path_241" data-name="Path 241" d="M135.184,59.773a.582.582,0,0,0,.7.442h0a.626.626,0,0,0,.506-.7l-.19-.885a.582.582,0,0,0-.7-.442h0a.626.626,0,0,0-.506.7Z" transform="translate(-110.719 -43.52)" fill="#455b64"/>
      <path id="Path_242" data-name="Path 242" d="M128.184,61.273a.582.582,0,0,0,.7.442h0a.626.626,0,0,0,.506-.7l-.19-.885a.582.582,0,0,0-.7-.442h0a.626.626,0,0,0-.506.7Z" transform="translate(-108.142 -44.072)" fill="#455b64"/>
      <path id="Path_243" data-name="Path 243" d="M131.684,60.473a.582.582,0,0,0,.7.442h0a.626.626,0,0,0,.506-.7l-.19-.885a.582.582,0,0,0-.7-.442h0a.626.626,0,0,0-.506.7Z" transform="translate(-109.43 -43.778)" fill="#455b64"/>
      <path id="Path_244" data-name="Path 244" d="M103.684,66.373a.582.582,0,0,0,.7.442h0a.626.626,0,0,0,.506-.7l-.19-.885a.582.582,0,0,0-.7-.442h0a.626.626,0,0,0-.506.7Z" transform="translate(-99.124 -45.949)" fill="#455b64"/>
      <path id="Path_245" data-name="Path 245" d="M100.184,67.073a.582.582,0,0,0,.7.442h0a.626.626,0,0,0,.506-.7l-.19-.885a.582.582,0,0,0-.7-.442h0a.626.626,0,0,0-.506.7Z" transform="translate(-97.836 -46.207)" fill="#455b64"/>
      <path id="Path_246" data-name="Path 246" d="M114.184,64.173a.582.582,0,0,0,.7.442h0a.626.626,0,0,0,.506-.7l-.19-.885a.582.582,0,0,0-.7-.442h0a.626.626,0,0,0-.506.7l.19.885Z" transform="translate(-102.989 -45.14)" fill="#455b64"/>
      <path id="Path_247" data-name="Path 247" d="M107.184,65.673a.582.582,0,0,0,.7.442h0a.626.626,0,0,0,.506-.7l-.19-.885a.582.582,0,0,0-.7-.442h0a.626.626,0,0,0-.506.7Z" transform="translate(-100.413 -45.692)" fill="#455b64"/>
      <path id="Path_248" data-name="Path 248" d="M110.684,64.873a.582.582,0,0,0,.7.442h0a.626.626,0,0,0,.506-.7l-.19-.885a.582.582,0,0,0-.7-.442h0a.626.626,0,0,0-.506.7Z" transform="translate(-101.701 -45.397)" fill="#455b64"/>
      <path id="Path_249" data-name="Path 249" d="M96.784,67.773a.582.582,0,0,0,.7.442h0a.626.626,0,0,0,.506-.7l-.19-.885a.582.582,0,0,0-.7-.442h0a.626.626,0,0,0-.506.7Z" transform="translate(-96.585 -46.465)" fill="#455b64"/>
    </g>
    <path id="Path_250" data-name="Path 250" d="M217.9,35.563V35.5a99.575,99.575,0,0,1-16.177,6L83.3,65.769c4.613.19,6.762.19,10.427.126,0,0,1.011,0,2.717-.063a21.743,21.743,0,0,0,2.654-.19q2.844-.19,6.635-.758a2.272,2.272,0,0,0,.7-.126,6.386,6.386,0,0,0,1.074-.19.8.8,0,0,0,.379-.063,2.781,2.781,0,0,0,.632-.126,1.487,1.487,0,0,0,.506-.126c.506-.126,1.011-.19,1.58-.316l3.665-.7.822-.19,35.767-7.014,4.992-.948,35.261-6.951h.506c3.16-.758,19.337-4.866,24.2-8.721A6.471,6.471,0,0,0,217.9,37.08a.9.9,0,0,1,.126-.379c0-.19.063-.316.063-.506V35.69Z" transform="translate(-42.414 -27.579)" fill="#eaeaea"/>
  </g>
  <path id="Path_251" data-name="Path 251" d="M146.333,58.349S144.5,55.1,129.208,56.083c-8.91.551-68.943,6.368-71.155,9.062-2.275,2.694,44.867,2.266,44.867,2.266L146.4,58.349Z" transform="translate(-21.528 -35.087)" fill="#e1ecf2"/>
  <path id="Path_263" data-name="Path 263" d="M146.186,56.921s-1.685-1.711-16.977-.855c-8.91.482-68.943,5.565-71.155,7.92-2.275,2.355,44.735,1.765,44.735,1.765Z" transform="translate(-21.528 -33.639)" fill="#5878b3" opacity="0.359"/>
  <g id="Group_228" data-name="Group 228" transform="translate(0 29.379)">
    <path id="Path_252" data-name="Path 252" d="M34.175,71.177h0L19.641,74.211,2.2,73.073l10.048-2.085L32.09,69.6A1.941,1.941,0,0,1,34.175,71.177Z" transform="translate(-0.999 -69.506)" fill="#ff8a34"/>
    <path id="Path_253" data-name="Path 253" d="M33.476,71.127a.759.759,0,0,0-.19-.379,2.106,2.106,0,0,0-.822-.885,1.792,1.792,0,0,0-.822-.253,6.5,6.5,0,0,0-1.074.063c-.822.063-1.706.126-2.717.19-4.044.316-9.732.758-16.3,1.2h0C8.515,71.7,5.292,72.39,1.88,73.086a.474.474,0,0,0-.316.063v-.316c6.382.442,12.386.822,17.378,1.137h0c4.36-.885,8.025-1.643,10.553-2.149,1.264-.253,2.275-.442,2.97-.569.316,0,.569-.126.758-.126h.253a1,1,0,0,0-.253.063,6.533,6.533,0,0,0-.758.19c-.7.126-1.706.379-2.97.632-2.591.569-6.193,1.327-10.553,2.275h0c-4.992-.316-11-.7-17.441-1.074H.3A8.418,8.418,0,0,1,1.5,72.9a.473.473,0,0,0,.316-.063c3.412-.7,6.7-1.39,9.668-2.022h0c6.572-.442,12.259-.821,16.3-1.137,1.011-.063,1.9-.126,2.717-.19a6.837,6.837,0,0,1,1.137,0,1.827,1.827,0,0,1,.885.253,2.121,2.121,0,0,1,.822.948A1.092,1.092,0,0,1,33.476,71.127Z" transform="translate(-0.3 -69.456)" fill="none"/>
  </g>
  <path id="Path_254" data-name="Path 254" d="M164.9,57.3c0,.063-17.5,3.728-39.116,8.152S86.663,73.35,86.6,73.287c0-.063,17.5-3.728,39.116-8.152S164.832,57.236,164.9,57.3Z" transform="translate(-32.065 -35.602)" fill="#a7abad" opacity="0.467"/>
  <path id="Path_255" data-name="Path 255" d="M159.186,58.2s-16.556,3.665-15.609,9.163c.822,4.739,7.836,3.728,17.884,1.453Z" transform="translate(-53.022 -35.934)" fill="#e0e0e0"/>
  <path id="Path_256" data-name="Path 256" d="M169.541,63.628c.526,2.97.993,5.119.73,5.182-.263,0-.841-2.275-1.367-5.182s-1.246-5.287-.983-5.351S168.9,60.763,169.541,63.628Z" transform="translate(-61.746 -35.927)" fill="#263238"/>
  <path id="Path_257" data-name="Path 257" d="M167.238,69.656a5.712,5.712,0,0,1-.7-1.39,21.849,21.849,0,0,1-1.074-3.665,26.378,26.378,0,0,1-.569-3.792V59.672c0-.253.126-.442.126-.379v1.58a28.631,28.631,0,0,0,.632,3.728,35.535,35.535,0,0,0,1.011,3.665,12.744,12.744,0,0,1,.506,1.453Z" transform="translate(-60.885 -36.332)" fill="#263238"/>
  <path id="Path_258" data-name="Path 258" d="M152.488,72.142c-5.055.632-8.341,0-8.91-3.16-.442-2.654,2.97-4.8,6.888-6.382,0,0-.506,1.517.19,4.929.885,4.044,1.833,4.613,1.833,4.613Z" transform="translate(-53.023 -37.554)" fill="#ff8a34"/>
  <path id="Path_259" data-name="Path 259" d="M159.061,58.2v.19a3.2,3.2,0,0,0,.126.569c.126.506.253,1.2.506,2.149.442,1.9,1.011,4.55,1.706,7.709v.126h-.126c-1.959.442-4.107.948-6.382,1.327-1.137.19-2.338.379-3.6.506a15.733,15.733,0,0,1-3.855,0,6.6,6.6,0,0,1-2.464-.758,3.461,3.461,0,0,1-1.58-1.959,4.074,4.074,0,0,1-.19-1.264,2.614,2.614,0,0,1,.316-1.2,6.02,6.02,0,0,1,1.453-1.833,14.587,14.587,0,0,1,3.6-2.212,35.36,35.36,0,0,1,3.412-1.39,39.959,39.959,0,0,1,5.119-1.517c.632-.126,1.074-.253,1.39-.316s.506-.126.506-.063a1.519,1.519,0,0,0-.506.126,13.765,13.765,0,0,1-1.39.379c-1.2.316-2.97.885-5.055,1.643a29.876,29.876,0,0,0-3.349,1.453,16.407,16.407,0,0,0-3.539,2.212,5.174,5.174,0,0,0-1.39,1.706,2.077,2.077,0,0,0-.253,1.074v.569a1.846,1.846,0,0,0,.126.569,3.11,3.11,0,0,0,1.453,1.769,6,6,0,0,0,2.338.758,15.225,15.225,0,0,0,3.792,0c1.2-.126,2.4-.316,3.6-.506,2.338-.379,4.487-.885,6.382-1.264l-.126.19c-.632-3.16-1.2-5.814-1.58-7.709-.19-.885-.316-1.643-.442-2.149a1.262,1.262,0,0,0-.126-.569v-.19Z" transform="translate(-52.898 -35.934)" fill="#a7abad"/>
  <path id="Path_260" data-name="Path 260" d="M255.528,38.683a1.749,1.749,0,0,0,.7-.379,2.115,2.115,0,0,0,.822-1.833c-.19-.885-.442-1.959-.7-3.16a3.129,3.129,0,0,0-.253-.821,1.523,1.523,0,0,0-.632-.632,2.123,2.123,0,0,0-.885-.316,2.456,2.456,0,0,0-.948.126,1.9,1.9,0,0,0-1.39,1.2,2.151,2.151,0,0,0-.126.885,3.643,3.643,0,0,0,.19.885,16.177,16.177,0,0,1,.316,1.706,4.481,4.481,0,0,0,.379,1.39,2.017,2.017,0,0,0,1.706,1.011c.506,0,.758-.126.758,0a.489.489,0,0,0-.19.063,4.03,4.03,0,0,1-.569.126,2.225,2.225,0,0,1-1.9-1.011,2.264,2.264,0,0,1-.253-.7,3.332,3.332,0,0,0-.19-.758q-.19-.758-.379-1.706a6.275,6.275,0,0,0-.19-.948,2.783,2.783,0,0,1,.126-1.011,2.324,2.324,0,0,1,1.58-1.39,2.956,2.956,0,0,1,1.074-.126,1.983,1.983,0,0,1,1.011.379,2.009,2.009,0,0,1,.7.758,2.8,2.8,0,0,1,.316.948c.253,1.2.442,2.275.632,3.16a2.249,2.249,0,0,1-.948,1.959c-.253.126-.442.19-.569.253h-.19Z" transform="translate(-92.871 -26.023)" fill="#e0e0e0"/>
  <path id="Path_261" data-name="Path 261" d="M276.73,27l-3.918.822a2.49,2.49,0,0,0-1.58,1.074l-1.833,2.78,11.311-2.528L276.667,27Z" transform="translate(-99.349 -24.45)" fill="#29364e"/>
  <rect id="Rectangle_2964" data-name="Rectangle 2964" width="0.569" height="3.349" transform="translate(173.583 2.977) rotate(-11.9)" fill="#e0e0e0"/>
</svg>
