<svg xmlns="http://www.w3.org/2000/svg" width="104.346" height="28.736" viewBox="0 0 104.346 28.736">
  <g id="Group_205" data-name="Group 205" transform="translate(-9535 1258.463)">
    <text id="Preyana" transform="translate(9572.346 -1237.463)" fill="#4a4a4a" font-size="18" font-family="Lato-Bold, Lato" font-weight="700"><tspan x="0" y="0">Preyana</tspan></text>
    <g id="Group_76" data-name="Group 76" transform="translate(462 -763.463)">
      <rect id="Rectangle_46" data-name="Rectangle 46" width="17.613" height="28.736" rx="4" transform="translate(9073 -495)" fill="#c7c7c7"/>
      <g id="Group_74" data-name="Group 74" transform="translate(9078.992 -492.434)">
        <g id="Group_72" data-name="Group 72" transform="translate(8.612 0)">
          <g id="Group_71" data-name="Group 71" transform="translate(0.715)">
            <circle id="Ellipse_5" data-name="Ellipse 5" cx="2.227" cy="2.227" r="2.227" transform="translate(6.56)" fill="#4a4a4a"/>
            <path id="Path_57" data-name="Path 57" d="M8585.1-671.509a3.446,3.446,0,0,1,2.281-2.547s-.769,2.671-.8,2.881a3.167,3.167,0,0,0,0,1.859c.316.876,3.808,4.3,3.9,4.429s1.046,4.139,1.109,4.318a1.69,1.69,0,0,0,1.533.832,1.629,1.629,0,0,0,1.3-1.336c.007-.4-1.009-4.4-1.116-4.734a2.845,2.845,0,0,0-.873-1.346c-.672-.692-1.895-2.091-1.895-2.091l.874-2.932s.24.609.494,1.144a1.913,1.913,0,0,0,.9.967,13.752,13.752,0,0,0,1.559.748,1.523,1.523,0,0,0,1.521-.417,1.432,1.432,0,0,0,.25-1.564c-.138-.642-1.276-1.032-1.693-1.251-.326-.513-1.387-6.367-7.789-4.386a5.907,5.907,0,0,0-4.379,4.542A1.5,1.5,0,0,0,8585.1-671.509Z" transform="translate(-8582.247 683.242)" fill="#4a4a4a"/>
          </g>
          <path id="Path_58" data-name="Path 58" d="M8570.973-469.068l2.207,2.425s-.617,1.578-.768,1.834a3.318,3.318,0,0,1-.632.821c-.358.353-2.476,2.481-2.72,2.687a1.535,1.535,0,0,1-1.933-.088,1.417,1.417,0,0,1-.376-1.6c.1-.347.6-.723.654-.809s2.416-2.443,2.416-2.443Z" transform="translate(-8566.649 484.518)" fill="#4a4a4a"/>
        </g>
        <path id="Path_59" data-name="Path 59" d="M8386.408-530.083s1.252-1.933,1.557-2.594,1.793-.352,1.07.947-4.633,8.265-4.947,8.689a1.479,1.479,0,0,1-2.211.49c-1.246-.753-2.094-1.189-2.473-1.49a1.362,1.362,0,0,1-.355-1.939c.568-1.093,2.2-3.932,2.711-4.8s1.174-1.185,1.961-.877A23.559,23.559,0,0,1,8386.408-530.083Z" transform="translate(-8378.804 545.533)" fill="#4a4a4a"/>
      </g>
    </g>
  </g>
</svg>
