<svg xmlns="http://www.w3.org/2000/svg" width="30.675" height="23.167" viewBox="0 0 30.675 23.167">
  <g id="Group_166" data-name="Group 166" transform="translate(-588.655 0.167)">
    <g id="Group_167" data-name="Group 167" transform="translate(589.655 0.833)">
      <path id="Path_187" data-name="Path 187" d="M15941.655-2134.581v16.536" transform="translate(-15941.655 2137.529)" fill="none" stroke="#0050b7" stroke-linecap="square" stroke-width="2"/>
      <path id="Path_191" data-name="Path 191" d="M15941.655-2134.581v21.167" transform="translate(-15941.655 2134.581)" fill="none" stroke="#0050b7" stroke-linecap="round" stroke-width="2"/>
      <path id="Path_189" data-name="Path 189" d="M0,0V29.674" transform="translate(29.674 13.4) rotate(90)" fill="none" stroke="#0050b7" stroke-width="2"/>
      <path id="Path_188" data-name="Path 188" d="M15941.655-2134.581v8.37" transform="translate(-15912.99 2147.377)" fill="none" stroke="#0050b7" stroke-width="2"/>
      <path id="Path_190" data-name="Path 190" d="M15941.921-2134.581v7.766" transform="translate(-15913.256 2147.981)" fill="none" stroke="#0050b7" stroke-linecap="round" stroke-width="2"/>
    </g>
    <g id="Group_166-2" data-name="Group 166" transform="translate(592.203 0)">
      <g id="Ellipse_58" data-name="Ellipse 58" transform="translate(0)" fill="none" stroke="#0050b7" stroke-width="1.5">
        <circle cx="3.11" cy="3.11" r="3.11" stroke="none"/>
        <circle cx="3.11" cy="3.11" r="2.36" fill="none"/>
      </g>
      <g id="Union_4" data-name="Union 4" transform="translate(0 3.11)" fill="none">
        <path d="M2.163,8.523a2.162,2.162,0,1,1,0-4.324H6.314V2.426a2.426,2.426,0,1,1,4.853,0V6.361A2.162,2.162,0,0,1,9,8.523Z" stroke="none"/>
        <path d="M 9.004500389099121 7.02299976348877 C 9.36991024017334 7.02299976348877 9.667200088500977 6.726119995117188 9.667200088500977 6.361199855804443 L 9.667200088500977 2.426399946212769 C 9.667200088500977 1.915579915046692 9.251620292663574 1.49999988079071 8.740799903869629 1.49999988079071 C 8.22998046875 1.49999988079071 7.814400196075439 1.915579915046692 7.814400196075439 2.426399946212769 L 7.814400196075439 5.69849967956543 L 2.162699937820435 5.69849967956543 C 1.797290086746216 5.69849967956543 1.5 5.995790004730225 1.5 6.361199855804443 C 1.5 6.726119995117188 1.797290086746216 7.02299976348877 2.162699937820435 7.02299976348877 L 9.004500389099121 7.02299976348877 M 9.004500389099121 8.52299976348877 L 2.162699937820435 8.52299976348877 C 0.9684000611305237 8.52299976348877 4.425048771850015e-08 7.555500030517578 4.425048771850015e-08 6.361199855804443 C 4.425048771850015e-08 5.166899681091309 0.9684000611305237 4.19849967956543 2.162699937820435 4.19849967956543 L 6.314400196075439 4.19849967956543 L 6.314400196075439 2.426399946212769 C 6.314400196075439 1.086299896240234 7.400700092315674 -1.182556133016988e-07 8.740799903869629 -1.182556133016988e-07 C 10.08090019226074 -1.182556133016988e-07 11.16720008850098 1.086299896240234 11.16720008850098 2.426399946212769 L 11.16720008850098 6.361199855804443 C 11.16720008850098 7.555500030517578 10.1988000869751 8.52299976348877 9.004500389099121 8.52299976348877 Z" stroke="none" fill="#0050b7"/>
      </g>
      <g id="Rectangle_2947" data-name="Rectangle 2947" transform="translate(12.336 3.696)" fill="none" stroke="#0050b7" stroke-width="1.5">
        <path d="M0,0H6.467A7.937,7.937,0,0,1,14.4,7.937v0a0,0,0,0,1,0,0H0a0,0,0,0,1,0,0V0A0,0,0,0,1,0,0Z" stroke="none"/>
        <path d="M.75.75H7.217a6.437,6.437,0,0,1,6.437,6.437v0a0,0,0,0,1,0,0H.75a0,0,0,0,1,0,0V.75A0,0,0,0,1,.75.75Z" fill="none"/>
      </g>
    </g>
  </g>
</svg>
