<svg xmlns="http://www.w3.org/2000/svg" width="36.186" height="36.187" viewBox="0 0 36.186 36.187">
  <path id="Path_186" data-name="Path 186" d="M10.355,12.755.48,15.852A1.333,1.333,0,0,1,.3,14C1.066,12.92,10.355,7.16,10.355,7.16s-.383-4.466-.3-5.23A2.561,2.561,0,0,1,11.98.006,2.259,2.259,0,0,1,14.1,1.7a28.675,28.675,0,0,1,0,5.054l9.271,6.973a1.6,1.6,0,0,1,.307,2.174c-1.986-.554-9.8-3.146-9.8-3.146l-.529,6.552,3.15,2.033a1.131,1.131,0,0,1,.4,1.61c-1.682-.4-3.914-1.035-3.914-1.035s-.109.99-.2,1.573a.719.719,0,0,1-1.383-.023c-.184-.807-.3-1.55-.3-1.55l-4.027,1.3A1.208,1.208,0,0,1,7.2,21.7a33.1,33.1,0,0,1,3.641-2.392Z" transform="translate(18.088 1.121) rotate(45)" fill="none" stroke="#0050b7" stroke-width="1.5"/>
</svg>
