<svg xmlns="http://www.w3.org/2000/svg" width="24" height="23.992" viewBox="0 0 24 23.992">
  <g id="Group_590" data-name="Group 590" transform="translate(-693.458 -374.393)">
    <path id="Union_7" data-name="Union 7" d="M9.57,23.963a.845.845,0,0,1-.6-1.036L9.5,20.943a.846.846,0,0,1,1.634.438l-.532,1.984a.846.846,0,0,1-1.036.6Zm8.179-1.072-1.027-1.778a.846.846,0,0,1,1.465-.846l1.027,1.778a.846.846,0,0,1-1.465.846ZM1.486,18.8a.844.844,0,0,1,.31-1.155L2.863,17.1a4.381,4.381,0,0,0,.321.842,4.286,4.286,0,0,0,.464.7l-1.007.472a.846.846,0,0,1-1.156-.31Zm21.45-2.824-1.984-.531a.846.846,0,0,1,.437-1.634l1.985.532a.846.846,0,1,1-.438,1.633Zm-6.809-1.233a3.192,3.192,0,0,0-1.7-1.679,3.348,3.348,0,0,0-1.288-.251,4.271,4.271,0,0,0-1.736.392A2.745,2.745,0,0,0,9.79,11.194a6.25,6.25,0,0,0-1.548-.59,7.59,7.59,0,0,0-1.783-.212A7.2,7.2,0,0,0,5.4,10.47a7.013,7.013,0,0,1,.855-2.289A7.093,7.093,0,0,1,7.8,6.35,7.059,7.059,0,0,1,16.3,5.9a7.082,7.082,0,0,1,2.561,3.11,7.08,7.08,0,0,1-.629,6.669,2.869,2.869,0,0,0-.4-.027,3.981,3.981,0,0,0-1.443.3A3.252,3.252,0,0,0,16.126,14.744Zm-13.514-4.5L.628,9.716a.846.846,0,1,1,.437-1.634l1.985.531a.847.847,0,0,1-.22,1.664A.836.836,0,0,1,2.612,10.248ZM20.031,7.927a.847.847,0,0,1,.31-1.156l1.778-1.027a.846.846,0,0,1,.846,1.465L21.187,8.237a.846.846,0,0,1-1.156-.31ZM6.732,3.47,5.705,1.691A.846.846,0,0,1,7.17.846L8.2,2.624a.847.847,0,0,1-.31,1.156.846.846,0,0,1-1.156-.31Zm8.125-.113a.845.845,0,0,1-.31-1.156L15.575.423a.846.846,0,1,1,1.465.846L16.013,3.047a.847.847,0,0,1-.734.423A.832.832,0,0,1,14.857,3.357Z" transform="translate(693.457 374.394)" fill="#ffba00"/>
    <path id="Path_324" data-name="Path 324" d="M14152.348,8745.266c1.372.037,9.829-.064,12.319,0,.746-.968.593-2.567-1.415-2.368-.046-1.523-2.66-3.171-4.768-1.972-.479-2.636-5.034-3.986-6.85-1.484S14151.565,8744.6,14152.348,8745.266Z" transform="translate(-13454.022 -8352.111)" fill="#dcdcdc"/>
  </g>
</svg>
