<svg xmlns="http://www.w3.org/2000/svg" width="23.997" height="24" viewBox="0 0 23.997 24">
  <path id="Union_5" data-name="Union 5" d="M-13618.617-7840a.954.954,0,0,1-.954-.954.954.954,0,0,1,.954-.954h20.093a.951.951,0,0,1,.951.954.951.951,0,0,1-.951.954Zm7.227-4.659a.954.954,0,0,1-.954-.954.955.955,0,0,1,.954-.954h12.474a.955.955,0,0,1,.954.954.954.954,0,0,1-.954.954Zm-7.873,0a.954.954,0,0,1-.95-.954.954.954,0,0,1,.95-.954h4a.955.955,0,0,1,.954.954.954.954,0,0,1-.954.954Zm3-3.4a8.136,8.136,0,0,1-.314-2.246,8.087,8.087,0,0,1,.611-3.1,8.149,8.149,0,0,1,.711-1.354,8.52,8.52,0,0,1,.947-1.179,7.931,7.931,0,0,1,1.148-.971,7.67,7.67,0,0,1,1.316-.735,7.483,7.483,0,0,1,3.019-.626,7.505,7.505,0,0,1,3.015.626,7.67,7.67,0,0,1,1.316.735,7.746,7.746,0,0,1,1.145.971,8.044,8.044,0,0,1,.947,1.179,8.168,8.168,0,0,1,.715,1.354,8.14,8.14,0,0,1,.608,3.1,8.134,8.134,0,0,1-.312,2.246Zm16.753-.684a.953.953,0,0,1-.953-.95.956.956,0,0,1,.953-.954h1.672a.955.955,0,0,1,.954.954.952.952,0,0,1-.954.95Zm-20.421-.407a.951.951,0,0,1-.95-.954.951.951,0,0,1,.95-.954h1.671a.954.954,0,0,1,.954.954.954.954,0,0,1-.954.954Zm18.438-5.483a1.055,1.055,0,0,1,.3-1.3l1.7-1.155a.741.741,0,0,1,1.1.349,1.048,1.048,0,0,1-.294,1.3l-1.7,1.159a.72.72,0,0,1-.4.126A.793.793,0,0,1-13601.491-7854.639Zm-15.684.126-1.7-1.162a1.075,1.075,0,0,1-.28-1.326.756.756,0,0,1,1.114-.369l1.7,1.162a1.074,1.074,0,0,1,.28,1.326.82.82,0,0,1-.718.5A.69.69,0,0,1-13617.175-7854.513Zm12.648-3.982a1.054,1.054,0,0,1-.3-1.3l.981-2.006a.745.745,0,0,1,1.1-.349,1.049,1.049,0,0,1,.294,1.3l-.98,2.006a.791.791,0,0,1-.7.475A.718.718,0,0,1-13604.526-7858.5Zm-9.862-.461-.957-2.02a1.141,1.141,0,0,1,.431-1.381.807.807,0,0,1,1.224.284l.957,2.017a1.142,1.142,0,0,1-.434,1.381.936.936,0,0,1-.52.167A.761.761,0,0,1-13614.389-7858.957Zm4.813-1.63v-2.608a.808.808,0,0,1,.807-.807.809.809,0,0,1,.81.807v2.608a.807.807,0,0,1-.81.807A.806.806,0,0,1-13609.575-7860.587Z" transform="translate(13620.88 7864.002)" fill="#ffba00"/>
</svg>
