<svg xmlns="http://www.w3.org/2000/svg" width="24" height="24" viewBox="0 0 24 24">
  <path id="Union_8" data-name="Union 8" d="M-13596.548-7836.928a6.968,6.968,0,0,1-1.433-.417,7.172,7.172,0,0,1-2.532-1.759,7.876,7.876,0,0,1-.952-1.269,10.012,10.012,0,0,0,2.437.346,9.345,9.345,0,0,0,2.48-.289,8.263,8.263,0,0,0,2.334-1,7.813,7.813,0,0,0,1.987-1.782,6.4,6.4,0,0,0,1.138-2.263,8.8,8.8,0,0,0,.3-2.625,11,11,0,0,0-.421-2.709,11.233,11.233,0,0,0-1.052-2.511,7.173,7.173,0,0,1,1.658.758,7.414,7.414,0,0,1,1.463,1.212,7.732,7.732,0,0,1,1.635,2.715,8.223,8.223,0,0,1,.384,1.534,8.794,8.794,0,0,1,.1,1.591,9.4,9.4,0,0,1-.188,1.6,9.538,9.538,0,0,1-.474,1.561,9.035,9.035,0,0,1-1.795,2.81,8.324,8.324,0,0,1-2.636,1.91,7.816,7.816,0,0,1-1.455.5,7.592,7.592,0,0,1-1.494.2l-.2,0A7.3,7.3,0,0,1-13596.548-7836.928Zm-7.781-9.083-.675-.94,1.154.383.942-.729-.374,1.108.511,1-.936-.329-.788.46Zm2.6-8.533-1.045-1.454,1.782.587,1.449-1.118-.576,1.708.789,1.538-1.439-.5-1.216.708Zm-7.993-3.807-1.3-1.806,2.214.735,1.795-1.393-.709,2.125.977,1.91-1.785-.628-1.515.879Z" transform="translate(13611.015 7860.814)" fill="#ffba00"/>
</svg>
