<svg width="573" height="362" viewBox="0 0 573 362" fill="none" xmlns="http://www.w3.org/2000/svg">
<g clip-path="url(#clip0_35_1353)">
<path d="M69.9818 139.479C89.168 139.479 104.721 123.926 104.721 104.74C104.721 85.5535 89.168 70 69.9818 70C50.7957 70 35.2422 85.5535 35.2422 104.74C35.2422 123.926 50.7957 139.479 69.9818 139.479Z" fill="#FF6584"/>
<path d="M311.512 361.346C357.955 361.346 395.604 358.44 395.604 354.855C395.604 351.27 357.955 348.363 311.512 348.363C265.069 348.363 227.42 351.27 227.42 354.855C227.42 358.44 265.069 361.346 311.512 361.346Z" fill="#FFD400"/>
<path opacity="0.4" d="M62.9084 135.634C64.6765 124.738 57.2773 114.473 46.3819 112.705C35.4865 110.937 25.2207 118.336 23.4526 129.231C21.6845 140.127 29.0837 150.392 39.9791 152.16C50.8745 153.928 61.1403 146.529 62.9084 135.634Z" fill="#FFD400"/>
<path d="M510.77 235.53C353.38 176.53 161.42 234.05 50.5903 351.71C49.9603 352.37 49.3303 353.04 48.7203 353.71H47.0303C47.6103 353.04 48.2103 352.37 48.8003 351.71C161.93 225.1 351.34 174.64 510.77 235.53Z" fill="#3F3D56"/>
<path d="M553.78 255.099C539.868 247.68 525.503 241.144 510.77 235.529C525.542 241.051 539.913 247.59 553.78 255.099Z" fill="#3F3D56"/>
<path opacity="0.4" d="M467.641 196.235C479.747 196.235 489.561 186.421 489.561 174.315C489.561 162.209 479.747 152.395 467.641 152.395C455.534 152.395 445.72 162.209 445.72 174.315C445.72 186.421 455.534 196.235 467.641 196.235Z" fill="#FFD400"/>
<path d="M470.081 342.921C471.775 349.183 477.577 353.061 477.577 353.061C477.577 353.061 480.633 346.787 478.939 340.525C477.245 334.263 471.443 330.385 471.443 330.385C471.443 330.385 468.387 336.659 470.081 342.921Z" fill="#3F3D56"/>
<path d="M472.571 341.575C477.219 346.1 477.787 353.056 477.787 353.056C477.787 353.056 470.818 352.675 466.17 348.151C461.522 343.626 460.954 336.67 460.954 336.67C460.954 336.67 467.922 337.05 472.571 341.575Z" fill="#FFD400"/>
<path d="M3.35989 255.856V265.516L2.87988 266.036V255.756C3.03988 255.786 3.19992 255.826 3.35989 255.856Z" fill="#3F3D56"/>
<path d="M34.1399 351.705C33.9999 351.935 33.8499 352.165 33.6999 352.395H2.87988V256.335L3.35989 255.855L7.44989 260.505V253.705H20.4499V275.285L33.5799 290.195L33.6999 290.335C33.8599 290.835 34.0099 291.335 34.1599 291.835C34.1609 291.843 34.1644 291.85 34.1699 291.855C36.139 298.157 37.7549 304.563 39.0099 311.045C41.8699 326.335 41.4399 340.355 34.1399 351.705Z" fill="#CCCCCC"/>
<path d="M13.7015 308.953H5.427V315.849H13.7015V308.953Z" fill="#3F3D56"/>
<path d="M13.7015 321.365H5.427V328.261H13.7015V321.365Z" fill="#3F3D56"/>
<path d="M268.588 295.852L264.451 288.957L303.065 255.859C331.612 242.118 366.023 246.083 402.359 255.859V265.512L366.503 304.127L325.13 312.401L268.588 295.852Z" fill="#3F3D56"/>
<path d="M419.451 275.282C426.308 267.655 427.261 260.402 419.451 253.705H406.451V260.509L402.359 255.859L369.261 288.957L363.744 294.473L356.849 322.055L369.261 352.394H432.698V290.336L419.451 275.282Z" fill="#CCCCCC"/>
<path d="M264.451 288.957H369.261V352.395H264.451C251.771 338.676 258.358 313.672 264.451 288.957Z" fill="#F2F2F2"/>
<path d="M354.78 308.953H332.715V328.26H354.78V308.953Z" fill="#3F3D56"/>
<path d="M323.751 308.264H304.444V352.394H323.751V308.264Z" fill="#CCCCCC"/>
<path d="M282.379 315.159V308.264H274.105V315.159H281.689H282.379Z" fill="#3F3D56"/>
<path d="M281.689 320.676H274.105V327.572H282.379V320.676H281.689Z" fill="#3F3D56"/>
<path d="M296.169 308.264H287.895V315.159H296.169V308.264Z" fill="#3F3D56"/>
<path d="M296.169 320.676H287.895V327.571H296.169V320.676Z" fill="#3F3D56"/>
<path d="M398.911 315.849V308.953H390.636V315.849H398.221H398.911Z" fill="#3F3D56"/>
<path d="M398.221 321.365H390.636V328.26H398.911V321.365H398.221Z" fill="#3F3D56"/>
<path d="M412.701 308.953H404.427V315.849H412.701V308.953Z" fill="#3F3D56"/>
<path d="M412.701 321.365H404.427V328.261H412.701V321.365Z" fill="#3F3D56"/>
<path d="M81.966 180.01L75.071 174.493L113.685 140.016H211.599V170.356L148.162 213.108L81.966 180.01Z" fill="#3F3D56"/>
<path d="M229.451 159.356V140.705H216.451V145.273L211.599 140.016L179.88 174.493L167.469 182.768L148.224 323.371L177.247 352.394H244.697C255.032 300.406 263.227 246.999 244.697 175.872L229.451 159.356Z" fill="#CCCCCC"/>
<path d="M75.0704 174.492H179.88V352.393H75.0704C63.6012 283.28 57.9999 219.187 75.0704 174.492Z" fill="#F2F2F2"/>
<path d="M135.06 308.953H115.753V352.394H135.06V308.953Z" fill="#CCCCCC"/>
<path d="M95.067 321.366V314.471H86.793V321.366H94.378H95.067Z" fill="#3F3D56"/>
<path d="M94.378 326.881H86.793V333.777H95.067V326.881H94.378Z" fill="#3F3D56"/>
<path d="M108.858 314.469H100.583V321.364H108.858V314.469Z" fill="#3F3D56"/>
<path d="M150.92 326.881H143.335V333.777H151.609V326.881H150.92Z" fill="#3F3D56"/>
<path d="M165.4 314.469H157.125V321.364H165.4V314.469Z" fill="#3F3D56"/>
<path d="M165.4 326.881H157.125V333.776H165.4V326.881Z" fill="#3F3D56"/>
<path d="M209.53 183.458V176.562H201.256V183.458H208.841H209.53Z" fill="#3F3D56"/>
<path d="M208.841 188.975H201.256V195.87H209.53V188.975H208.841Z" fill="#3F3D56"/>
<path d="M223.321 176.562H215.047V183.458H223.321V176.562Z" fill="#3F3D56"/>
<path d="M223.321 188.973H215.047V195.868H223.321V188.973Z" fill="#3F3D56"/>
<path d="M209.53 222.072V215.176H201.256V222.072H208.841H209.53Z" fill="#3F3D56"/>
<path d="M208.841 227.588H201.256V234.483H209.53V227.588H208.841Z" fill="#3F3D56"/>
<path d="M223.321 215.176H215.047V222.071H223.321V215.176Z" fill="#3F3D56"/>
<path d="M223.321 227.588H215.047V234.483H223.321V227.588Z" fill="#3F3D56"/>
<path d="M209.53 260.685V253.789H201.256V260.685H208.841H209.53Z" fill="#3F3D56"/>
<path d="M208.841 266.201H201.256V273.096H209.53V266.201H208.841Z" fill="#3F3D56"/>
<path d="M223.321 253.789H215.047V260.684H223.321V253.789Z" fill="#3F3D56"/>
<path d="M223.321 266.201H215.047V273.097H223.321V266.201Z" fill="#3F3D56"/>
<path d="M209.53 299.3V292.404H201.256V299.3H208.841H209.53Z" fill="#3F3D56"/>
<path d="M208.841 304.816H201.256V311.711H209.53V304.816H208.841Z" fill="#3F3D56"/>
<path d="M223.321 292.404H215.047V299.3H223.321V292.404Z" fill="#3F3D56"/>
<path d="M223.321 304.816H215.047V311.712H223.321V304.816Z" fill="#3F3D56"/>
<path d="M86.7925 183.457H166.779V200.006C141.141 192.93 114.405 193.438 86.7925 200.006V183.457Z" fill="#3F3D56"/>
<path d="M86.7925 216.555C111.757 223.91 138.419 223.91 166.779 216.555V233.104H86.7925V216.555Z" fill="#3F3D56"/>
<path d="M86.7925 249.652H166.779V266.201C139.52 257.497 112.829 257.087 86.7925 266.201V249.652Z" fill="#3F3D56"/>
<path d="M86.7925 282.75C112.879 292.804 139.565 292.385 166.779 282.75V299.299H86.7925V282.75Z" fill="#3F3D56"/>
<path d="M516.68 254H572.88V281.08L567.86 282.65L551.16 287.862L524.96 281.793L498.79 275.729L484.97 272.527L478.07 269.974C483.81 262.098 494.25 255.904 516.68 254Z" fill="#3F3D56"/>
<path d="M572.88 269.975V352.396H478.07C478.04 352.345 478.02 352.298 477.99 352.247V352.243C477.967 352.185 477.941 352.129 477.91 352.076C476.43 349.097 475.103 346.126 473.93 343.162C463.98 318.084 465.06 293.668 478.07 269.975H572.88Z" fill="#F2F2F2"/>
<path d="M538.06 308.953H518.753V352.394H538.06V308.953Z" fill="#CCCCCC"/>
<path d="M498.067 321.366V314.471H489.793V321.366H497.378H498.067Z" fill="#3F3D56"/>
<path d="M497.378 326.881H489.793V333.777H498.067V326.881H497.378Z" fill="#3F3D56"/>
<path d="M511.858 314.469H503.583V321.364H511.858V314.469Z" fill="#3F3D56"/>
<path d="M511.858 326.881H503.583V333.776H511.858V326.881Z" fill="#3F3D56"/>
<path d="M554.609 321.366V314.471H546.335V321.366H553.92H554.609Z" fill="#3F3D56"/>
<path d="M553.92 326.881H546.335V333.777H554.609V326.881H553.92Z" fill="#3F3D56"/>
<path d="M568.4 314.469H560.125V321.364H568.4V314.469Z" fill="#3F3D56"/>
<path d="M568.4 326.881H560.125V333.776H568.4V326.881Z" fill="#3F3D56"/>
<path d="M498.793 222H510.679C522.402 222 533.644 226.657 541.934 234.946C550.223 243.236 554.88 254.479 554.88 266.202H498.793V222Z" fill="#3F3D56"/>
<path d="M138.792 102H150.678C162.401 102 173.644 106.657 181.934 114.946C190.223 123.236 194.88 134.479 194.88 146.202H138.792V102Z" fill="#3F3D56"/>
<path d="M328.793 213H340.679C352.402 213 363.644 217.657 371.934 225.946C380.223 234.236 384.88 245.479 384.88 257.202H328.793V213Z" fill="#3F3D56"/>
<path d="M554.88 282.75H498.792V299.299H554.88V282.75Z" fill="#3F3D56"/>
<path d="M572.88 351.711H2.88013V353.711H572.88V351.711Z" fill="#3F3D56"/>
<path d="M55.4509 272.705H53.4509V351.705H55.4509V272.705Z" fill="#3F3D56"/>
<path d="M73.9086 282.774C74.0359 310.398 54.6007 332.882 54.6007 332.882C54.6007 332.882 29.7114 310.1 34.8318 282.954C39.9814 255.653 56.0308 232.962 54.1396 232.846C54.1396 232.846 73.7812 255.15 73.9086 282.774Z" fill="#FFD400"/>
<path d="M255.451 272.705H253.451V351.705H255.451V272.705Z" fill="#3F3D56"/>
<path d="M273.909 282.774C275.711 310.34 254.601 332.882 254.601 332.882C254.601 332.882 234.959 310.578 234.832 282.954C234.705 255.33 254.14 232.846 254.14 232.846C252.245 240.418 272.45 260.47 273.909 282.774Z" fill="#FFD400"/>
<path d="M125.513 144.289L212.387 140.039L248.83 170.458L242.387 176.275L184.678 174.976L125.513 144.289Z" fill="#3F3D56"/>
<path d="M38.83 285.455L34.15 289.685L33.58 290.195L32.39 291.275L2.88 290.615V255.755C1.92 255.545 0.96 255.345 0 255.155L2.39001 255.035L2.88 255.445L7.45001 259.255L20.45 270.115L34.97 282.235L38.83 285.455Z" fill="#3F3D56"/>
<path d="M315.513 259.289L402.387 255.039L438.83 285.458L432.387 291.275L374.678 289.976L315.513 259.289Z" fill="#3F3D56"/>
<g clip-path="url(#clip1_35_1353)">
<path d="M368.787 84.2052C368.787 84.3158 368.911 84.4046 369.065 84.4046H416.753C416.907 84.4046 417.031 84.3158 417.031 84.2052C417.031 84.0947 416.907 84.0059 416.753 84.0059H369.065C368.911 84.0059 368.787 84.0947 368.787 84.2052Z" fill="#E6E6E6"/>
<path d="M330.004 112.68L330.476 125.214H329.327V126.633H332.538V125.214H331.601L331.668 112.68H330.004Z" fill="#3F3D56"/>
<path d="M328.765 123.203C329.254 123.203 329.65 123.6 329.65 124.09V127.756C329.65 128.246 329.254 128.643 328.765 128.643C328.276 128.643 327.88 128.246 327.88 127.756V124.09C327.88 123.6 328.276 123.203 328.765 123.203Z" fill="#3F3D56"/>
<path d="M333.248 123.203C333.737 123.203 334.133 123.6 334.133 124.09V127.756C334.133 128.246 333.737 128.643 333.248 128.643C332.76 128.643 332.364 128.246 332.364 127.756V124.09C332.364 123.6 332.76 123.203 333.248 123.203Z" fill="#3F3D56"/>
<path d="M340.446 104.869L322.275 104.041L325.107 102.74L341.036 102.977L340.446 104.869Z" fill="#0050B7"/>
<path d="M268 106.707L270.194 105.879L338.322 107.653L341.154 106.352L339.974 114.393L285.857 108.614L268 106.707Z" fill="#0050B7"/>
<path d="M285.521 111.377L285.857 108.613L339.974 114.393L339.679 118.472L285.521 111.377Z" fill="#3F3D56"/>
<path d="M321.921 119.537C325.017 119.537 327.526 116.863 327.526 113.565C327.526 110.267 325.017 107.594 321.921 107.594C318.826 107.594 316.317 110.267 316.317 113.565C316.317 116.863 318.826 119.537 321.921 119.537Z" fill="#3F3D56"/>
<path d="M321.921 116.641C324.202 116.641 326.051 114.788 326.051 112.502C326.051 110.216 324.202 108.363 321.921 108.363C319.641 108.363 317.792 110.216 317.792 112.502C317.792 114.788 319.641 116.641 321.921 116.641Z" fill="#0050B7"/>
<path d="M367.996 112.68L367.524 125.214H368.673V126.633H365.462V125.214H366.399L366.332 112.68H367.996Z" fill="#3F3D56"/>
<path d="M369.235 123.203H369.235C368.747 123.203 368.35 123.6 368.35 124.09V127.756C368.35 128.246 368.747 128.643 369.235 128.643H369.235C369.724 128.643 370.12 128.246 370.12 127.756V124.09C370.12 123.6 369.724 123.203 369.235 123.203Z" fill="#3F3D56"/>
<path d="M364.752 123.203H364.752C364.263 123.203 363.867 123.6 363.867 124.09V127.756C363.867 128.246 364.263 128.643 364.752 128.643H364.752C365.24 128.643 365.637 128.246 365.637 127.756V124.09C365.637 123.6 365.24 123.203 364.752 123.203Z" fill="#3F3D56"/>
<path d="M357.554 104.869L375.725 104.041L372.893 102.74L356.964 102.977L357.554 104.869Z" fill="#0050B7"/>
<path d="M351.051 102.322L350.225 84.1113L348.927 86.9493L349.163 102.913L351.051 102.322Z" fill="#0050B7"/>
<path d="M430 106.707L427.806 105.879L359.678 107.653L356.846 106.352L358.026 114.393L412.143 108.614L430 106.707Z" fill="#0050B7"/>
<path d="M412.478 111.377L412.143 108.613L358.026 114.393L358.321 118.472L412.478 111.377Z" fill="#3F3D56"/>
<path d="M376.079 119.537C379.174 119.537 381.683 116.863 381.683 113.565C381.683 110.267 379.174 107.594 376.079 107.594C372.983 107.594 370.474 110.267 370.474 113.565C370.474 116.863 372.983 119.537 376.079 119.537Z" fill="#3F3D56"/>
<path d="M376.079 116.641C378.359 116.641 380.208 114.788 380.208 112.502C380.208 110.216 378.359 108.363 376.079 108.363C373.798 108.363 371.949 110.216 371.949 112.502C371.949 114.788 373.798 116.641 376.079 116.641Z" fill="#0050B7"/>
<path d="M359.295 102.601L359.027 104.579L358.888 115.226C358.877 116.018 358.781 116.801 358.602 117.56C358.085 119.771 356.878 121.783 355.095 123.241C353.478 124.565 351.271 125.568 348.351 125.391C340.564 124.918 339.876 118.275 339.876 118.275L340.17 106.23L340.21 104.579L340.564 101.598C340.564 101.598 341.508 93.202 350.239 93.4385C358.97 93.675 359.295 102.601 359.295 102.601Z" fill="#0050B7"/>
<path d="M342.452 99.8249L344.222 96.9868L346.463 96.2773H354.133L356.02 96.9868L357.734 99.8249L354.605 98.4059H345.827L342.452 99.8249Z" fill="#E6E6E6"/>
<path d="M348.942 120.229L349.245 128.27H348.508V129.18H350.568V128.27H349.967L350.01 120.229H348.942Z" fill="#3F3D56"/>
<path d="M348.147 126.98C348.461 126.98 348.715 127.235 348.715 127.549V129.901C348.715 130.215 348.461 130.47 348.147 130.47C347.834 130.47 347.58 130.215 347.58 129.901V127.549C347.58 127.235 347.834 126.98 348.147 126.98Z" fill="#3F3D56"/>
<path d="M351.023 126.98C351.337 126.98 351.591 127.235 351.591 127.549V129.901C351.591 130.215 351.337 130.47 351.023 130.47C350.71 130.47 350.456 130.215 350.456 129.901V127.549C350.456 127.235 350.71 126.98 351.023 126.98Z" fill="#3F3D56"/>
<path d="M346.746 94.5342L345.115 100.416L345.43 100.503L347.06 94.6216L346.746 94.5342Z" fill="#0050B7"/>
<path d="M354.138 95.4721L353.818 95.5352L354.992 101.525L355.312 101.462L354.138 95.4721Z" fill="#0050B7"/>
<path d="M387.726 86.0761C388.896 86.0761 389.845 85.1251 389.845 83.9521C389.845 82.7791 388.896 81.8281 387.726 81.8281C386.556 81.8281 385.607 82.7791 385.607 83.9521C385.607 85.1251 386.556 86.0761 387.726 86.0761Z" fill="#0050B7"/>
<path d="M329.068 93.0272C330.239 93.0272 331.188 92.0763 331.188 90.9033C331.188 89.7302 330.239 88.7793 329.068 88.7793C327.898 88.7793 326.949 89.7302 326.949 90.9033C326.949 92.0763 327.898 93.0272 329.068 93.0272Z" fill="#0050B7"/>
<path d="M281.082 130.77C281.082 130.88 281.205 130.969 281.359 130.969H329.047C329.201 130.969 329.325 130.88 329.325 130.77C329.325 130.659 329.201 130.57 329.047 130.57H281.359C281.205 130.57 281.082 130.659 281.082 130.77Z" fill="#E6E6E6"/>
<path d="M300.02 132.639C301.191 132.639 302.139 131.688 302.139 130.515C302.139 129.342 301.191 128.391 300.02 128.391C298.85 128.391 297.901 129.342 297.901 130.515C297.901 131.688 298.85 132.639 300.02 132.639Z" fill="#0050B7"/>
</g>
</g>
<defs>
<clipPath id="clip0_35_1353">
<rect width="572.88" height="361.347" fill="white"/>
</clipPath>
<clipPath id="clip1_35_1353">
<rect width="162" height="69" fill="white" transform="translate(268 67)"/>
</clipPath>
</defs>
</svg>
