<svg xmlns="http://www.w3.org/2000/svg" width="15" height="20" viewBox="0 0 15 20">
  <g id="Group_190" data-name="Group 190" transform="translate(-362.164 0)">
    <g id="Path_194" data-name="Path 194" transform="translate(355.897 0.003)" fill="none">
      <path d="M13.628,0C18.3.035,23.48,4.79,20.271,10.87a78.05,78.05,0,0,1-6.1,8.824c-.221.289-.638.535-1.1-.072-1.151-1.58-4.934-6.816-5.816-8.752C4.144,5.446,8.955-.041,13.628,0Z" stroke="none"/>
      <path d="M 13.57975387573242 1.99681282043457 C 11.8332633972168 1.99681282043457 9.929073333740234 3.178272247314453 8.949123382568359 4.869912147521973 C 8.300403594970703 5.989751815795898 7.780843734741211 7.767122268676758 8.989683151245117 9.875041961669922 L 9.03602409362793 9.955852508544922 L 9.074653625488281 10.04061222076416 C 9.538444519042969 11.05832099914551 11.26517486572266 13.68211841583252 13.67956447601318 17.05060577392578 C 15.02657794952393 15.2808780670166 16.95871734619141 12.65211200714111 18.51557540893555 9.910948753356934 C 19.47431182861328 8.079410552978516 19.51035690307617 6.324014663696289 18.61946487426758 4.832761764526367 C 17.63142395019531 3.178871154785156 15.5720739364624 2.01274299621582 13.61134338378906 1.996932983398438 L 13.57975387573242 1.99681282043457 M 13.57975387573242 -0.003190994262695312 C 13.59572792053223 -0.003190994262695312 13.61165332794189 -0.003126144409179688 13.62762355804443 -0.00299835205078125 C 18.30010223388672 0.03466224670410156 23.48045349121094 4.790142059326172 20.27092361450195 10.86999225616455 C 18.13802337646484 14.63242149353027 15.36613368988037 18.1328125 14.17278385162354 19.69376182556152 C 13.95169353485107 19.98296165466309 13.53451347351074 20.22836303710938 13.07055377960205 19.62216186523438 C 11.91923332214355 18.04197311401367 8.137033462524414 12.80606269836426 7.254722595214844 10.86999225616455 C 4.154664993286133 5.464221954345703 8.922403335571289 -0.003190994262695312 13.57975387573242 -0.003190994262695312 Z" stroke="none" fill="#949494"/>
    </g>
    <g id="Ellipse_62" data-name="Ellipse 62" transform="translate(366.314 3.907)" fill="none" stroke="#949494" stroke-width="2">
      <circle cx="3.5" cy="3.5" r="3.5" stroke="none"/>
      <circle cx="3.5" cy="3.5" r="2.5" fill="none"/>
    </g>
  </g>
</svg>
