<svg xmlns="http://www.w3.org/2000/svg" width="175.687" height="44.736" viewBox="0 0 175.687 44.736">
  <g id="Group_161" data-name="Group 161" transform="translate(-9535 1274.5)">
    <text id="Preyana" transform="translate(9596.687 -1240.5)" fill="#ed6400" font-size="30" font-family="Lato-Black, Lato" font-weight="800"><tspan x="0" y="0">Preyana</tspan></text>
    <g id="Group_76" data-name="Group 76" transform="translate(462 -779.5)">
      <rect id="Rectangle_46" data-name="Rectangle 46" width="27.419" height="44.736" rx="4" transform="translate(9073 -495)" fill="#ffd400"/>
      <g id="Group_74" data-name="Group 74" transform="translate(9082.329 -491.006)">
        <g id="Group_72" data-name="Group 72" transform="translate(13.406 0)">
          <g id="Group_71" data-name="Group 71" transform="translate(1.113)">
            <circle id="Ellipse_5" data-name="Ellipse 5" cx="3.467" cy="3.467" r="3.467" transform="translate(10.212)" fill="#003c8a"/>
            <path id="Path_57" data-name="Path 57" d="M8586.682-668.262a5.368,5.368,0,0,1,3.552-3.965s-1.2,4.159-1.24,4.485a4.931,4.931,0,0,0,0,2.894c.492,1.363,5.928,6.7,6.069,6.9s1.628,6.444,1.727,6.721a2.63,2.63,0,0,0,2.386,1.3,2.533,2.533,0,0,0,2.021-2.08c.012-.626-1.57-6.845-1.738-7.369a4.421,4.421,0,0,0-1.357-2.095c-1.048-1.078-2.951-3.256-2.951-3.256l1.361-4.564s.374.948.77,1.781a2.981,2.981,0,0,0,1.405,1.505,21.66,21.66,0,0,0,2.427,1.165,2.37,2.37,0,0,0,2.368-.65,2.229,2.229,0,0,0,.39-2.435c-.214-1-1.986-1.606-2.637-1.947-.506-.8-2.158-9.912-12.124-6.827a9.2,9.2,0,0,0-6.818,7.07C8581.831-667.668,8585.133-665.566,8586.682-668.262Z" transform="translate(-8582.247 686.528)" fill="#003c8a"/>
          </g>
          <path id="Path_58" data-name="Path 58" d="M8573.38-469.068l3.437,3.776s-.961,2.457-1.194,2.855a5.2,5.2,0,0,1-.984,1.279c-.558.549-3.854,3.863-4.234,4.183a2.39,2.39,0,0,1-3.009-.137,2.2,2.2,0,0,1-.584-2.488c.15-.54.93-1.126,1.017-1.259s3.762-3.8,3.762-3.8Z" transform="translate(-8566.649 493.12)" fill="#003c8a"/>
        </g>
        <path id="Path_59" data-name="Path 59" d="M8390.644-528.451s1.947-3.009,2.423-4.039,2.791-.549,1.666,1.474-7.212,12.867-7.7,13.527a2.3,2.3,0,0,1-3.442.762c-1.94-1.173-3.259-1.85-3.849-2.32a2.119,2.119,0,0,1-.554-3.018c.884-1.7,3.431-6.122,4.22-7.468s1.826-1.845,3.053-1.365A36.732,36.732,0,0,1,8390.644-528.451Z" transform="translate(-8378.804 552.503)" fill="#003c8a"/>
      </g>
    </g>
  </g>
</svg>
