<svg xmlns="http://www.w3.org/2000/svg" width="24.001" height="24" viewBox="0 0 24.001 24">
  <path id="Union_6" data-name="Union 6" d="M-13614.859-7837.466a.846.846,0,0,1-.6-1.036l.534-1.987a.842.842,0,0,1,1.032-.6.846.846,0,0,1,.6,1.036l-.53,1.986a.85.85,0,0,1-.817.626A.965.965,0,0,1-13614.859-7837.466Zm8.179-1.074-1.029-1.778a.845.845,0,0,1,.312-1.156.844.844,0,0,1,1.156.308l1.028,1.781a.844.844,0,0,1-.311,1.152.836.836,0,0,1-.424.116A.85.85,0,0,1-13606.681-7838.54Zm-16.266-4.093a.841.841,0,0,1,.312-1.152l1.778-1.029a.845.845,0,0,1,1.155.311.849.849,0,0,1-.308,1.156l-1.781,1.026a.856.856,0,0,1-.421.113A.843.843,0,0,1-13622.946-7842.633Zm3.8-7.04a7.066,7.066,0,0,1,7.068-7.068,7.068,7.068,0,0,1,7.067,7.068,7.068,7.068,0,0,1-7.067,7.071A7.067,7.067,0,0,1-13619.147-7849.673Zm17.65,4.216-1.982-.53a.843.843,0,0,1-.6-1.036.844.844,0,0,1,1.036-.6l1.983.53a.849.849,0,0,1,.6,1.036.849.849,0,0,1-.817.628A.862.862,0,0,1-13601.5-7845.457Zm-20.324-5.73-1.983-.53a.842.842,0,0,1-.595-1.036.844.844,0,0,1,1.036-.6l1.983.53a.849.849,0,0,1,.6,1.036.85.85,0,0,1-.817.628A.862.862,0,0,1-13621.821-7851.187Zm17.422-2.322a.846.846,0,0,1,.311-1.156l1.778-1.026a.846.846,0,0,1,1.156.308.845.845,0,0,1-.312,1.156l-1.778,1.029a.836.836,0,0,1-.42.112A.849.849,0,0,1-13604.4-7853.509Zm-13.3-4.459-1.029-1.778a.847.847,0,0,1,.312-1.156.845.845,0,0,1,1.155.308l1.026,1.782a.845.845,0,0,1-.309,1.155.846.846,0,0,1-.421.113A.845.845,0,0,1-13617.7-7857.968Zm8.124-.113a.848.848,0,0,1-.311-1.156l1.028-1.781a.847.847,0,0,1,1.156-.308.844.844,0,0,1,.308,1.155l-1.025,1.778a.848.848,0,0,1-.734.424A.842.842,0,0,1-13609.573-7858.081Z" transform="translate(13624.43 7861.439)" fill="#ffba00"/>
</svg>
