<?xml version="1.0" encoding="UTF-8"?>
<svg xmlns="http://www.w3.org/2000/svg" version="1.1" viewBox="0 0 175.7 44.7">
  <defs>
    <style>
      .cls-1 {
        fill: #ffd400;
      }

      .cls-2, .cls-3 {
        isolation: isolate;
      }

      .cls-4 {
        fill: #003c8a;
      }

      .cls-3 {
        fill: #ed6400;
        font-family: Lato-Heavy, Lato;
        font-size: 30px;
        font-weight: 800;
      }
    </style>
  </defs>
  <!-- Generator: Adobe Illustrator 28.6.0, SVG Export Plug-In . SVG Version: 1.2.0 Build 709)  -->
  <g>
    <g id="Layer_1">
      <g id="Group_161">
        <g id="Preyana" class="cls-2">
          <text class="cls-3" transform="translate(61.7 34)"><tspan x="0" y="0">Preyana</tspan></text>
        </g>
        <g id="Group_76">
          <rect id="Rectangle_46" class="cls-1" width="27.4" height="44.7" rx="4" ry="4"/>
          <g id="Group_74">
            <g id="Group_72">
              <g id="Group_71">
                <circle id="Ellipse_5" class="cls-4" cx="37.5" cy="7.5" r="3.5"/>
                <path id="Path_57" class="cls-4" d="M28.3,22.3c.4-1.9,1.8-3.4,3.6-4,0,0-1.2,4.2-1.2,4.5-.3.9-.3,2,0,2.9.5,1.4,5.9,6.7,6.1,6.9s1.6,6.4,1.7,6.7c.5.8,1.4,1.3,2.4,1.3,1-.2,1.9-1,2-2.1,0-.6-1.6-6.8-1.7-7.4-.2-.8-.7-1.5-1.4-2.1-1-1.1-3-3.3-3-3.3l1.4-4.6s.4.9.8,1.8c.3.7.8,1.2,1.4,1.5.8.4,1.6.8,2.4,1.2.8.2,1.8,0,2.4-.7.6-.7.8-1.6.4-2.4-.2-1-2-1.6-2.6-1.9-.5-.8-2.2-9.9-12.1-6.8-3.4.8-6.1,3.6-6.8,7.1-.5,2,2.8,4.1,4.4,1.4Z"/>
              </g>
              <path id="Path_58" class="cls-4" d="M29.5,28l3.4,3.8s-1,2.5-1.2,2.9c-.3.5-.6.9-1,1.3-.6.5-3.9,3.9-4.2,4.2-.9.7-2.2.6-3-.1-.7-.6-.9-1.6-.6-2.5.2-.5.9-1.1,1-1.3s3.8-3.8,3.8-3.8l1.8-4.4Z"/>
            </g>
            <path id="Path_59" class="cls-4" d="M21.2,28s1.9-3,2.4-4,2.8-.5,1.7,1.5-7.2,12.9-7.7,13.5c-.6,1.1-2,1.6-3.1,1-.1,0-.2-.1-.3-.2-1.9-1.2-3.3-1.8-3.8-2.3-1-.6-1.3-2-.6-2.9,0,0,0,0,0,0,.9-1.7,3.4-6.1,4.2-7.5s1.8-1.8,3.1-1.4c1.4.7,2.8,1.5,4.2,2.4Z"/>
          </g>
        </g>
      </g>
    </g>
  </g>
</svg>